<svg width="173" height="237" viewBox="0 0 173 237" fill="none" xmlns="http://www.w3.org/2000/svg">
<g filter="url(#filter0_d_661_7)">
<path d="M104.979 112.707L104.998 112.755L105.019 112.802C105.616 114.148 106 116.114 106 118.268C106 120.421 105.616 122.387 105.019 123.733L104.998 123.78L104.979 123.828L87.4346 169.534L84.1494 162.129L99.3857 118.933L99.6211 118.268L99.3857 117.603L84.1494 74.4053L87.4346 67L104.979 112.707Z" fill="#CC4699"/>
</g>
<g filter="url(#filter1_d_661_7)">
<path d="M87.8301 112.707L87.8486 112.755L87.8691 112.802C88.4662 114.148 88.8506 116.114 88.8506 118.268C88.8506 120.421 88.4662 122.387 87.8691 123.733L87.8486 123.78L87.8301 123.828L70.2852 169.534L67 162.129L82.2363 118.933L82.4717 118.268L82.2363 117.603L67 74.4053L70.2852 67L87.8301 112.707Z" fill="#CC4699"/>
</g>
<defs>
<filter id="filter0_d_661_7" x="17.1494" y="0" width="155.851" height="236.534" filterUnits="userSpaceOnUse" color-interpolation-filters="sRGB">
<feFlood flood-opacity="0" result="BackgroundImageFix"/>
<feColorMatrix in="SourceAlpha" type="matrix" values="0 0 0 0 0 0 0 0 0 0 0 0 0 0 0 0 0 0 127 0" result="hardAlpha"/>
<feMorphology radius="40" operator="dilate" in="SourceAlpha" result="effect1_dropShadow_661_7"/>
<feOffset/>
<feGaussianBlur stdDeviation="13.5"/>
<feComposite in2="hardAlpha" operator="out"/>
<feColorMatrix type="matrix" values="0 0 0 0 1 0 0 0 0 1 0 0 0 0 1 0 0 0 0.75 0"/>
<feBlend mode="normal" in2="BackgroundImageFix" result="effect1_dropShadow_661_7"/>
<feBlend mode="normal" in="SourceGraphic" in2="effect1_dropShadow_661_7" result="shape"/>
</filter>
<filter id="filter1_d_661_7" x="0" y="0" width="155.851" height="236.534" filterUnits="userSpaceOnUse" color-interpolation-filters="sRGB">
<feFlood flood-opacity="0" result="BackgroundImageFix"/>
<feColorMatrix in="SourceAlpha" type="matrix" values="0 0 0 0 0 0 0 0 0 0 0 0 0 0 0 0 0 0 127 0" result="hardAlpha"/>
<feMorphology radius="40" operator="dilate" in="SourceAlpha" result="effect1_dropShadow_661_7"/>
<feOffset/>
<feGaussianBlur stdDeviation="13.5"/>
<feComposite in2="hardAlpha" operator="out"/>
<feColorMatrix type="matrix" values="0 0 0 0 1 0 0 0 0 1 0 0 0 0 1 0 0 0 0.75 0"/>
<feBlend mode="normal" in2="BackgroundImageFix" result="effect1_dropShadow_661_7"/>
<feBlend mode="normal" in="SourceGraphic" in2="effect1_dropShadow_661_7" result="shape"/>
</filter>
</defs>
</svg>
