<svg width="18" height="17" viewBox="0 0 18 17" fill="none" xmlns="http://www.w3.org/2000/svg">
<path d="M5.57292 11.25C8.44167 11.25 10.8379 13.3988 11.1529 16.2563C11.1754 16.4137 11.1192 16.5713 11.0179 16.695C10.9167 16.8188 10.7479 16.875 10.5904 16.875H0.555418C0.476259 16.8756 0.397941 16.8587 0.326009 16.8257C0.254077 16.7927 0.190291 16.7442 0.139168 16.6838C0.0870819 16.6242 0.0481364 16.5544 0.0248744 16.4788C0.00161228 16.4032 -0.00544334 16.3235 0.0041681 16.245C0.296668 13.3987 2.70417 11.25 5.57292 11.25ZM5.62467 3.375C6.51977 3.375 7.37822 3.73058 8.01115 4.36351C8.64409 4.99645 8.99967 5.85489 8.99967 6.75C8.99967 7.64511 8.64409 8.50355 8.01115 9.13649C7.37822 9.76942 6.51977 10.125 5.62467 10.125C4.72956 10.125 3.87112 9.76942 3.23818 9.13649C2.60525 8.50355 2.24967 7.64511 2.24967 6.75C2.24967 5.85489 2.60525 4.99645 3.23818 4.36351C3.87112 3.73058 4.72956 3.375 5.62467 3.375ZM14.0622 0C14.2114 0 14.3544 0.0592632 14.4599 0.164752C14.5654 0.270242 14.6247 0.413316 14.6247 0.5625V3.375H17.4372C17.5777 3.37474 17.7133 3.42712 17.8172 3.52182C17.921 3.61652 17.9857 3.74669 17.9984 3.88667C18.0111 4.02666 17.9709 4.16634 17.8858 4.27819C17.8007 4.39004 17.6767 4.46596 17.5384 4.491L17.4372 4.5H14.6247V7.3125C14.6247 7.44415 14.5786 7.57165 14.4943 7.67279C14.41 7.77393 14.2929 7.8423 14.1634 7.866L14.0622 7.875C13.913 7.875 13.7699 7.81574 13.6644 7.71025C13.5589 7.60476 13.4997 7.46168 13.4997 7.3125V4.5H10.6872C10.5466 4.50026 10.411 4.44788 10.3072 4.35318C10.2033 4.25848 10.1386 4.12831 10.1259 3.98833C10.1132 3.84834 10.1534 3.70866 10.2385 3.59681C10.3237 3.48496 10.4476 3.40904 10.5859 3.384L10.6872 3.375H13.4997V0.5625C13.4996 0.430846 13.5458 0.303348 13.63 0.202209C13.7143 0.10107 13.8314 0.0326977 13.9609 0.009L14.0622 0Z" fill="#CC4699"/>
</svg>
