<svg width="145" height="54" viewBox="0 0 145 54" fill="none" xmlns="http://www.w3.org/2000/svg">
<rect x="1" y="1" width="143" height="52" rx="4" fill="white" fill-opacity="0.25"/>
<rect x="1" y="1" width="143" height="52" rx="4" stroke="url(#paint0_linear_1573_1068)" stroke-width="2"/>
<path d="M29.5 18C26.4625 18 24 20.5826 24 23.7682C24 29.5364 30.5 34.7803 34 36C37.5 34.7803 44 29.5364 44 23.7682C44 20.5826 41.5375 18 38.5 18C36.64 18 34.995 18.9685 34 20.451C33.4928 19.6934 32.819 19.0752 32.0357 18.6486C31.2524 18.2219 30.3826 17.9995 29.5 18Z" fill="#CC4699"/>
<path d="M57.7676 19.9648V33.1094H55.873V21.2832L53.1973 21.9961V20.5996L55.5312 19.9648H57.7676ZM61.2344 19.9648H65.3262C65.6126 19.9648 65.8796 20.0202 66.127 20.1309C66.3743 20.235 66.5924 20.3848 66.7812 20.5801C66.9766 20.7689 67.1263 20.9902 67.2305 21.2441C67.3411 21.4915 67.3965 21.7585 67.3965 22.0449V31.0488C67.3965 31.3288 67.3411 31.5957 67.2305 31.8496C67.1263 32.097 66.9798 32.3151 66.791 32.5039C66.6022 32.6927 66.3809 32.8424 66.127 32.9531C65.8796 33.0573 65.6126 33.1094 65.3262 33.1094H61.2344C60.9544 33.1094 60.6875 33.0573 60.4336 32.9531C60.1862 32.8424 59.9681 32.6927 59.7793 32.5039C59.5905 32.3151 59.4408 32.097 59.3301 31.8496C59.2259 31.5957 59.1738 31.3288 59.1738 31.0488V22.0449C59.1738 21.7585 59.2259 21.4915 59.3301 21.2441C59.4408 20.9902 59.5905 20.7689 59.7793 20.5801C59.9681 20.3848 60.1862 20.235 60.4336 20.1309C60.6875 20.0202 60.9544 19.9648 61.2344 19.9648ZM65.502 22.4355V22.0547C65.502 21.8724 65.4368 21.7194 65.3066 21.5957C65.1829 21.4655 65.0267 21.4004 64.8379 21.4004H61.7227C61.5404 21.4004 61.3841 21.4655 61.2539 21.5957C61.1302 21.7194 61.0684 21.8724 61.0684 22.0547V29.1543L65.502 22.4355ZM61.0684 30.7754V31.0195C61.0684 31.2083 61.1302 31.3678 61.2539 31.498C61.3841 31.6217 61.5404 31.6836 61.7227 31.6836H64.8379C65.0267 31.6836 65.1829 31.6217 65.3066 31.498C65.4368 31.3678 65.502 31.2083 65.502 31.0195V24.0566L61.0684 30.7754ZM70.4434 27.25V33.1094H68.5488V19.9648H70.4434V25.8242H74.3789L75.9414 19.9648H77.7969L76.4102 25.1406C76.2865 25.5768 76.0163 26.0423 75.5996 26.5371C76.0163 27.0254 76.2865 27.4941 76.4102 27.9434L77.7969 33.1094H75.9316L74.8184 28.959C74.7207 28.6139 74.5645 28.3145 74.3496 28.0605C74.1348 27.8001 73.8743 27.6016 73.5684 27.4648C73.2689 27.3216 72.9466 27.25 72.6016 27.25H70.4434ZM85.9902 19.9648V31.0195C85.9902 31.1953 86.0521 31.3516 86.1758 31.4883C86.306 31.6185 86.4622 31.6836 86.6445 31.6836H90.0137V33.1094H86.1562C85.8763 33.1094 85.6094 33.0573 85.3555 32.9531C85.1081 32.8424 84.89 32.6927 84.7012 32.5039C84.5124 32.3151 84.3626 32.097 84.252 31.8496C84.1478 31.5957 84.0957 31.3288 84.0957 31.0488V19.9648H85.9902ZM91.1465 19.9648H93.041V33.1094H91.1465V19.9648ZM96.3418 27.25V33.1094H94.4473V19.9648H96.3418V25.8242H100.277L101.84 19.9648H103.695L102.309 25.1406C102.185 25.5768 101.915 26.0423 101.498 26.5371C101.915 27.0254 102.185 27.4941 102.309 27.9434L103.695 33.1094H101.83L100.717 28.959C100.619 28.6139 100.463 28.3145 100.248 28.0605C100.033 27.8001 99.7728 27.6016 99.4668 27.4648C99.1673 27.3216 98.8451 27.25 98.5 27.25H96.3418ZM106.527 19.9648H112.455V21.4004H107.016C106.833 21.4004 106.677 21.4655 106.547 21.5957C106.417 21.7194 106.352 21.8724 106.352 22.0547V25.8242H110.863V27.25H106.352V31.0195C106.352 31.2018 106.417 31.3581 106.547 31.4883C106.677 31.6185 106.833 31.6836 107.016 31.6836H112.455V33.1094H106.527C106.241 33.1094 105.971 33.0573 105.717 32.9531C105.469 32.8424 105.248 32.6927 105.053 32.5039C104.864 32.3151 104.714 32.097 104.604 31.8496C104.499 31.5957 104.447 31.3288 104.447 31.0488V22.0449C104.447 21.7585 104.499 21.4915 104.604 21.2441C104.714 20.9902 104.864 20.7689 105.053 20.5801C105.248 20.3848 105.469 20.235 105.717 20.1309C105.971 20.0202 106.241 19.9648 106.527 19.9648Z" fill="white"/>
<defs>
<linearGradient id="paint0_linear_1573_1068" x1="31.1021" y1="4.63314" x2="54.4565" y2="70.5878" gradientUnits="userSpaceOnUse">
<stop stop-color="#CC4699"/>
<stop offset="0.28062" stop-color="#673E7D" stop-opacity="0"/>
<stop offset="0.604243" stop-color="#B8D8FF" stop-opacity="0"/>
<stop offset="1" stop-color="#1BC6BD"/>
</linearGradient>
</defs>
</svg>
