<svg width="409" height="54" viewBox="0 0 409 54" fill="none" xmlns="http://www.w3.org/2000/svg">
<rect x="1" y="1" width="407" height="52" rx="4" fill="white" fill-opacity="0.25"/>
<rect x="1" y="1" width="407" height="52" rx="4" stroke="url(#paint0_linear_1573_1087)" stroke-width="2"/>
<path d="M50.8398 33.6094L53.1836 22.5449C53.2487 22.2585 53.3626 21.9915 53.5254 21.7441C53.6882 21.4902 53.8835 21.2689 54.1113 21.0801C54.3392 20.8913 54.5898 20.7415 54.8633 20.6309C55.1432 20.5202 55.4264 20.4648 55.7129 20.4648H61.3184L61.0059 21.9004H55.8887C55.7064 21.9004 55.5371 21.9655 55.3809 22.0957C55.2246 22.2194 55.127 22.3724 55.0879 22.5547L54.2871 26.3242H58.7305L58.4277 27.75H53.9844L52.7441 33.6094H50.8398ZM64.3652 20.4648H68.8281C69.1081 20.4648 69.362 20.5202 69.5898 20.6309C69.8177 20.735 70.0065 20.8848 70.1562 21.0801C70.306 21.2689 70.4069 21.4902 70.459 21.7441C70.5111 21.9915 70.5078 22.2585 70.4492 22.5449L68.5352 31.5488C68.4766 31.8288 68.3659 32.0957 68.2031 32.3496C68.0469 32.597 67.8516 32.8151 67.6172 33.0039C67.3893 33.1927 67.1387 33.3424 66.8652 33.4531C66.5918 33.5573 66.3151 33.6094 66.0352 33.6094H61.5723C61.2858 33.6094 61.0286 33.5573 60.8008 33.4531C60.5729 33.3424 60.3841 33.1927 60.2344 33.0039C60.0846 32.8151 59.9837 32.597 59.9316 32.3496C59.8796 32.0957 59.8828 31.8288 59.9414 31.5488L61.8555 22.5449C61.9141 22.2585 62.0247 21.9915 62.1875 21.7441C62.3503 21.4902 62.5456 21.2689 62.7734 21.0801C63.0013 20.8848 63.252 20.735 63.5254 20.6309C63.7988 20.5202 64.0788 20.4648 64.3652 20.4648ZM68.5449 22.5547C68.584 22.3724 68.5514 22.2194 68.4473 22.0957C68.3496 21.9655 68.2096 21.9004 68.0273 21.9004H64.5508C64.3685 21.9004 64.196 21.9655 64.0332 22.0957C63.877 22.2194 63.7793 22.3724 63.7402 22.5547L61.8359 31.5195C61.7969 31.7018 61.8294 31.8581 61.9336 31.9883C62.0378 32.1185 62.181 32.1836 62.3633 32.1836H65.8398C66.0286 32.1836 66.1979 32.1185 66.3477 31.9883C66.5039 31.8516 66.6016 31.6953 66.6406 31.5195L68.5449 22.5547ZM74.0625 20.4648L71.709 31.5195C71.6699 31.6953 71.6992 31.8516 71.7969 31.9883C71.8945 32.1185 72.0378 32.1836 72.2266 32.1836H75.5957L75.293 33.6094H71.4355C71.1491 33.6094 70.8919 33.5573 70.6641 33.4531C70.4427 33.3424 70.2572 33.1927 70.1074 33.0039C69.9577 32.8151 69.8535 32.597 69.7949 32.3496C69.7428 32.0957 69.7461 31.8288 69.8047 31.5488L72.1582 20.4648H74.0625ZM80.8594 20.4648L78.5059 31.5195C78.4668 31.6953 78.4961 31.8516 78.5938 31.9883C78.6914 32.1185 78.8346 32.1836 79.0234 32.1836H82.3926L82.0898 33.6094H78.2324C77.946 33.6094 77.6888 33.5573 77.4609 33.4531C77.2396 33.3424 77.054 33.1927 76.9043 33.0039C76.7546 32.8151 76.6504 32.597 76.5918 32.3496C76.5397 32.0957 76.543 31.8288 76.6016 31.5488L78.9551 20.4648H80.8594ZM87.8223 20.4648H92.2852C92.5651 20.4648 92.819 20.5202 93.0469 20.6309C93.2747 20.735 93.4635 20.8848 93.6133 21.0801C93.763 21.2689 93.8639 21.4902 93.916 21.7441C93.9681 21.9915 93.9648 22.2585 93.9062 22.5449L91.9922 31.5488C91.9336 31.8288 91.8229 32.0957 91.6602 32.3496C91.5039 32.597 91.3086 32.8151 91.0742 33.0039C90.8464 33.1927 90.5957 33.3424 90.3223 33.4531C90.0488 33.5573 89.7721 33.6094 89.4922 33.6094H85.0293C84.7428 33.6094 84.4857 33.5573 84.2578 33.4531C84.0299 33.3424 83.8411 33.1927 83.6914 33.0039C83.5417 32.8151 83.4408 32.597 83.3887 32.3496C83.3366 32.0957 83.3398 31.8288 83.3984 31.5488L85.3125 22.5449C85.3711 22.2585 85.4818 21.9915 85.6445 21.7441C85.8073 21.4902 86.0026 21.2689 86.2305 21.0801C86.4583 20.8848 86.709 20.735 86.9824 20.6309C87.2559 20.5202 87.5358 20.4648 87.8223 20.4648ZM92.002 22.5547C92.041 22.3724 92.0085 22.2194 91.9043 22.0957C91.8066 21.9655 91.6667 21.9004 91.4844 21.9004H88.0078C87.8255 21.9004 87.653 21.9655 87.4902 22.0957C87.334 22.2194 87.2363 22.3724 87.1973 22.5547L85.293 31.5195C85.2539 31.7018 85.2865 31.8581 85.3906 31.9883C85.4948 32.1185 85.638 32.1836 85.8203 32.1836H89.2969C89.4857 32.1836 89.6549 32.1185 89.8047 31.9883C89.9609 31.8516 90.0586 31.6953 90.0977 31.5195L92.002 22.5547ZM95.6445 33.6094C95.306 33.6094 94.9772 33.5605 94.6582 33.4629C94.3392 33.3587 94.0625 33.2155 93.8281 33.0332C93.6003 32.8444 93.4342 32.6263 93.3301 32.3789C93.2324 32.125 93.2129 31.8418 93.2715 31.5293L95.625 20.4648H97.5195L95.3027 30.9238C95.2507 31.1647 95.2734 31.3698 95.3711 31.5391C95.4753 31.7018 95.625 31.7995 95.8203 31.832C96.0221 31.8646 96.2305 31.832 96.4453 31.7344C96.6667 31.6302 96.875 31.474 97.0703 31.2656C97.2656 31.0573 97.4414 30.7936 97.5977 30.4746L101.748 21.8418C101.885 21.5618 102.061 21.321 102.275 21.1191C102.49 20.9108 102.731 20.7513 102.998 20.6406C103.265 20.5234 103.542 20.4648 103.828 20.4648H104.521C104.775 20.4648 105.003 20.5137 105.205 20.6113C105.407 20.709 105.573 20.8424 105.703 21.0117C105.84 21.181 105.931 21.3763 105.977 21.5977C106.029 21.819 106.029 22.0599 105.977 22.3203L104.141 30.9238C104.095 31.1647 104.121 31.3698 104.219 31.5391C104.323 31.7018 104.473 31.7995 104.668 31.832C104.87 31.8646 105.078 31.832 105.293 31.7344C105.514 31.6302 105.723 31.474 105.918 31.2656C106.113 31.0573 106.289 30.7936 106.445 30.4746L111.26 20.4648H113.125L107.822 31.4902C107.614 31.9199 107.344 32.2943 107.012 32.6133C106.68 32.9258 106.305 33.1699 105.889 33.3457C105.479 33.5215 105.055 33.6094 104.619 33.6094H104.492C104.154 33.6094 103.825 33.5605 103.506 33.4629C103.187 33.3587 102.91 33.2155 102.676 33.0332C102.448 32.8444 102.282 32.6263 102.178 32.3789C102.08 32.125 102.061 31.8418 102.119 31.5293L104.062 22.3691C104.128 22.0957 104.059 21.959 103.857 21.959C103.662 21.946 103.493 22.0859 103.35 22.3789L98.9746 31.4902C98.7663 31.9199 98.4961 32.2943 98.1641 32.6133C97.832 32.9258 97.4577 33.1699 97.041 33.3457C96.6309 33.5215 96.2077 33.6094 95.7715 33.6094H95.6445ZM115.703 20.4648H121.641L121.328 21.9004H115.889C115.713 21.9004 115.544 21.9655 115.381 22.0957C115.225 22.2194 115.127 22.3724 115.088 22.5547L114.287 26.3242H118.799L118.496 27.75H113.984L113.184 31.5195C113.145 31.7018 113.174 31.8581 113.271 31.9883C113.376 32.1185 113.519 32.1836 113.701 32.1836H119.15L118.838 33.6094H112.91C112.624 33.6094 112.367 33.5573 112.139 33.4531C111.911 33.3424 111.722 33.1927 111.572 33.0039C111.423 32.8151 111.318 32.597 111.26 32.3496C111.208 32.0957 111.214 31.8288 111.279 31.5488L113.193 22.5449C113.252 22.2585 113.359 21.9915 113.516 21.7441C113.678 21.4902 113.877 21.2689 114.111 21.0801C114.346 20.8848 114.596 20.735 114.863 20.6309C115.137 20.5202 115.417 20.4648 115.703 20.4648ZM124.385 21.9004L122.715 29.7812L127.188 27.5742C127.324 27.4961 127.445 27.3952 127.549 27.2715C127.66 27.1413 127.731 26.998 127.764 26.8418L128.672 22.5547C128.711 22.3659 128.678 22.2096 128.574 22.0859C128.47 21.9622 128.327 21.9004 128.145 21.9004H124.385ZM127.832 28.7266L128.096 33.6094H126.23L126.016 29.625L122.363 31.4316L121.904 33.6094H120L122.793 20.4648H128.945C129.225 20.4648 129.479 20.5202 129.707 20.6309C129.941 20.735 130.13 20.8848 130.273 21.0801C130.423 21.2689 130.524 21.487 130.576 21.7344C130.635 21.9818 130.635 22.2487 130.576 22.5352L129.658 26.832C129.606 27.0729 129.518 27.2878 129.395 27.4766C129.271 27.6654 129.115 27.8444 128.926 28.0137C128.737 28.1764 128.522 28.3294 128.281 28.4727C128.223 28.5052 128.073 28.5898 127.832 28.7266ZM136.709 30.6113C136.898 29.7259 136.035 28.5345 134.121 27.0371C132.207 25.5332 131.335 24.3743 131.504 23.5605L131.729 22.5449C131.787 22.2585 131.895 21.9915 132.051 21.7441C132.214 21.4902 132.409 21.2689 132.637 21.0801C132.871 20.8848 133.125 20.735 133.398 20.6309C133.672 20.5202 133.949 20.4648 134.229 20.4648H138.691C138.978 20.4648 139.235 20.5202 139.463 20.6309C139.691 20.735 139.876 20.8848 140.02 21.0801C140.169 21.2689 140.27 21.4902 140.322 21.7441C140.381 21.9915 140.381 22.2585 140.322 22.5449L140.107 23.5215H138.223L138.428 22.5547C138.467 22.3724 138.434 22.2194 138.33 22.0957C138.226 21.9655 138.083 21.9004 137.9 21.9004H134.414C134.238 21.9004 134.069 21.9655 133.906 22.0957C133.75 22.2194 133.652 22.3724 133.613 22.5547L133.555 22.8281C133.372 23.6875 134.235 24.8822 136.143 26.4121C138.057 27.9355 138.929 29.0879 138.76 29.8691L138.408 31.5488C138.35 31.8288 138.239 32.0957 138.076 32.3496C137.913 32.597 137.718 32.8151 137.49 33.0039C137.262 33.1927 137.012 33.3424 136.738 33.4531C136.465 33.5573 136.185 33.6094 135.898 33.6094H131.436C131.156 33.6094 130.902 33.5573 130.674 33.4531C130.446 33.3424 130.257 33.1927 130.107 33.0039C129.958 32.8151 129.854 32.597 129.795 32.3496C129.743 32.0957 129.749 31.8288 129.814 31.5488L130.146 29.9766H132.031L131.709 31.5195C131.67 31.7018 131.699 31.8581 131.797 31.9883C131.901 32.1185 132.044 32.1836 132.227 32.1836H135.713C135.895 32.1836 136.064 32.1185 136.221 31.9883C136.383 31.8581 136.484 31.7018 136.523 31.5195L136.709 30.6113Z" fill="#CC4699"/>
<path d="M151.967 23.9473H156.332C156.618 23.9473 156.885 24.0026 157.133 24.1133C157.38 24.2174 157.598 24.3672 157.787 24.5625C157.976 24.7513 158.122 24.9694 158.227 25.2168C158.337 25.4642 158.393 25.7311 158.393 26.0176V30.5488C158.393 30.8353 158.337 31.1055 158.227 31.3594C158.122 31.6068 157.976 31.8249 157.787 32.0137C157.598 32.2025 157.377 32.349 157.123 32.4531C156.876 32.5573 156.612 32.6094 156.332 32.6094H152.143C151.856 32.6094 151.586 32.5573 151.332 32.4531C151.085 32.3424 150.867 32.1927 150.678 32.0039C150.489 31.8151 150.339 31.597 150.229 31.3496C150.124 31.0957 150.072 30.8288 150.072 30.5488V28.9766H151.967V30.5195C151.967 30.7018 152.032 30.8581 152.162 30.9883C152.292 31.1185 152.449 31.1836 152.631 31.1836H155.844C156.026 31.1836 156.182 31.1185 156.312 30.9883C156.443 30.8581 156.508 30.7018 156.508 30.5195V26.0371C156.508 25.8548 156.443 25.6986 156.312 25.5684C156.182 25.4382 156.026 25.373 155.844 25.373H150.072V19.4648H158.393V20.9004H151.967V23.9473ZM160.893 32.6094H159.008V31.1738H160.893V32.6094ZM164.027 19.4648H168.119C168.406 19.4648 168.673 19.5202 168.92 19.6309C169.167 19.735 169.385 19.8848 169.574 20.0801C169.77 20.2689 169.919 20.4902 170.023 20.7441C170.134 20.9915 170.189 21.2585 170.189 21.5449V30.5488C170.189 30.8288 170.134 31.0957 170.023 31.3496C169.919 31.597 169.773 31.8151 169.584 32.0039C169.395 32.1927 169.174 32.3424 168.92 32.4531C168.673 32.5573 168.406 32.6094 168.119 32.6094H164.027C163.747 32.6094 163.48 32.5573 163.227 32.4531C162.979 32.3424 162.761 32.1927 162.572 32.0039C162.383 31.8151 162.234 31.597 162.123 31.3496C162.019 31.0957 161.967 30.8288 161.967 30.5488V21.5449C161.967 21.2585 162.019 20.9915 162.123 20.7441C162.234 20.4902 162.383 20.2689 162.572 20.0801C162.761 19.8848 162.979 19.735 163.227 19.6309C163.48 19.5202 163.747 19.4648 164.027 19.4648ZM168.295 21.9355V21.5547C168.295 21.3724 168.23 21.2194 168.1 21.0957C167.976 20.9655 167.82 20.9004 167.631 20.9004H164.516C164.333 20.9004 164.177 20.9655 164.047 21.0957C163.923 21.2194 163.861 21.3724 163.861 21.5547V28.6543L168.295 21.9355ZM163.861 30.2754V30.5195C163.861 30.7083 163.923 30.8678 164.047 30.998C164.177 31.1217 164.333 31.1836 164.516 31.1836H167.631C167.82 31.1836 167.976 31.1217 168.1 30.998C168.23 30.8678 168.295 30.7083 168.295 30.5195V23.5566L163.861 30.2754ZM173.236 26.75V32.6094H171.342V19.4648H173.236V25.3242H177.172L178.734 19.4648H180.59L179.203 24.6406C179.079 25.0768 178.809 25.5423 178.393 26.0371C178.809 26.5254 179.079 26.9941 179.203 27.4434L180.59 32.6094H178.725L177.611 28.459C177.514 28.1139 177.357 27.8145 177.143 27.5605C176.928 27.3001 176.667 27.1016 176.361 26.9648C176.062 26.8216 175.74 26.75 175.395 26.75H173.236Z" fill="white"/>
<g clip-path="url(#clip0_1573_1087)">
<path d="M29.5732 29.25C32.442 29.25 34.8382 31.3988 35.1532 34.2563C35.1757 34.4137 35.1195 34.5713 35.0182 34.695C34.917 34.8188 34.7482 34.875 34.5907 34.875H24.5557C24.4765 34.8756 24.3982 34.8587 24.3263 34.8257C24.2544 34.7927 24.1906 34.7442 24.1395 34.6838C24.0874 34.6242 24.0484 34.5544 24.0252 34.4788C24.0019 34.4032 23.9948 34.3235 24.0045 34.245C24.297 31.3987 26.7045 29.25 29.5732 29.25ZM29.625 21.375C30.5201 21.375 31.3785 21.7306 32.0114 22.3635C32.6444 22.9964 33 23.8549 33 24.75C33 25.6451 32.6444 26.5036 32.0114 27.1365C31.3785 27.7694 30.5201 28.125 29.625 28.125C28.7299 28.125 27.8714 27.7694 27.2385 27.1365C26.6055 26.5036 26.25 25.6451 26.25 24.75C26.25 23.8549 26.6055 22.9964 27.2385 22.3635C27.8714 21.7306 28.7299 21.375 29.625 21.375ZM38.0625 18C38.2116 18 38.3547 18.0593 38.4602 18.1648C38.5657 18.2702 38.625 18.4133 38.625 18.5625V21.375H41.4375C41.578 21.3747 41.7136 21.4271 41.8175 21.5218C41.9213 21.6165 41.986 21.7467 41.9987 21.8867C42.0114 22.0267 41.9712 22.1663 41.8861 22.2782C41.801 22.39 41.677 22.466 41.5387 22.491L41.4375 22.5H38.625V25.3125C38.625 25.4442 38.5789 25.5717 38.4946 25.6728C38.4103 25.7739 38.2932 25.8423 38.1637 25.866L38.0625 25.875C37.9133 25.875 37.7702 25.8157 37.6647 25.7102C37.5592 25.6048 37.5 25.4617 37.5 25.3125V22.5H34.6875C34.5469 22.5003 34.4113 22.4479 34.3075 22.3532C34.2036 22.2585 34.1389 22.1283 34.1262 21.9883C34.1135 21.8483 34.1537 21.7087 34.2388 21.5968C34.324 21.485 34.4479 21.409 34.5862 21.384L34.6875 21.375H37.5V18.5625C37.4999 18.4308 37.5461 18.3033 37.6303 18.2022C37.7146 18.1011 37.8317 18.0327 37.9612 18.009L38.0625 18Z" fill="#CC4699"/>
</g>
<path d="M275.088 32.6094L277.432 21.5449C277.497 21.2585 277.611 20.9915 277.773 20.7441C277.936 20.4902 278.132 20.2689 278.359 20.0801C278.587 19.8913 278.838 19.7415 279.111 19.6309C279.391 19.5202 279.674 19.4648 279.961 19.4648H285.566L285.254 20.9004H280.137C279.954 20.9004 279.785 20.9655 279.629 21.0957C279.473 21.2194 279.375 21.3724 279.336 21.5547L278.535 25.3242H282.979L282.676 26.75H278.232L276.992 32.6094H275.088ZM286.719 22.873H290.02C290.306 22.873 290.56 22.9284 290.781 23.0391C291.009 23.1432 291.198 23.293 291.348 23.4883C291.497 23.6771 291.598 23.8952 291.65 24.1426C291.709 24.39 291.709 24.6569 291.65 24.9434L290.459 30.5488C290.4 30.8288 290.29 31.0957 290.127 31.3496C289.964 31.597 289.766 31.8151 289.531 32.0039C289.303 32.1927 289.053 32.3424 288.779 32.4531C288.512 32.5573 288.236 32.6094 287.949 32.6094H284.648C284.362 32.6094 284.105 32.5573 283.877 32.4531C283.656 32.3424 283.47 32.1927 283.32 32.0039C283.171 31.8151 283.066 31.597 283.008 31.3496C282.956 31.0957 282.962 30.8288 283.027 30.5488L284.209 24.9434C284.274 24.6569 284.385 24.39 284.541 24.1426C284.704 23.8952 284.899 23.6771 285.127 23.4883C285.361 23.293 285.612 23.1432 285.879 23.0391C286.152 22.9284 286.432 22.873 286.719 22.873ZM286.904 24.2988C286.722 24.2988 286.553 24.3639 286.396 24.4941C286.24 24.6243 286.143 24.7839 286.104 24.9727L284.922 30.5195C284.883 30.7018 284.912 30.8581 285.01 30.9883C285.114 31.1185 285.257 31.1836 285.439 31.1836H287.764C287.952 31.1836 288.122 31.1185 288.271 30.9883C288.428 30.8516 288.525 30.6953 288.564 30.5195L289.746 24.9727C289.785 24.7904 289.756 24.6341 289.658 24.5039C289.561 24.3672 289.417 24.2988 289.229 24.2988H286.904ZM293.633 30.5195C293.594 30.7018 293.623 30.8581 293.721 30.9883C293.825 31.1185 293.968 31.1836 294.15 31.1836H294.922L294.619 32.6094H293.359C293.079 32.6094 292.826 32.5573 292.598 32.4531C292.37 32.3424 292.181 32.1927 292.031 32.0039C291.882 31.8151 291.777 31.597 291.719 31.3496C291.667 31.0957 291.673 30.8288 291.738 30.5488L294.092 19.4648H295.986L293.633 30.5195ZM297.852 30.5195C297.812 30.7018 297.842 30.8581 297.939 30.9883C298.044 31.1185 298.187 31.1836 298.369 31.1836H299.141L298.838 32.6094H297.578C297.298 32.6094 297.044 32.5573 296.816 32.4531C296.589 32.3424 296.4 32.1927 296.25 32.0039C296.1 31.8151 295.996 31.597 295.938 31.3496C295.885 31.0957 295.892 30.8288 295.957 30.5488L298.311 19.4648H300.205L297.852 30.5195ZM303.828 22.873H307.129C307.415 22.873 307.669 22.9284 307.891 23.0391C308.118 23.1432 308.307 23.293 308.457 23.4883C308.607 23.6771 308.708 23.8952 308.76 24.1426C308.818 24.39 308.818 24.6569 308.76 24.9434L307.568 30.5488C307.51 30.8288 307.399 31.0957 307.236 31.3496C307.074 31.597 306.875 31.8151 306.641 32.0039C306.413 32.1927 306.162 32.3424 305.889 32.4531C305.622 32.5573 305.345 32.6094 305.059 32.6094H301.758C301.471 32.6094 301.214 32.5573 300.986 32.4531C300.765 32.3424 300.579 32.1927 300.43 32.0039C300.28 31.8151 300.176 31.597 300.117 31.3496C300.065 31.0957 300.072 30.8288 300.137 30.5488L301.318 24.9434C301.383 24.6569 301.494 24.39 301.65 24.1426C301.813 23.8952 302.008 23.6771 302.236 23.4883C302.471 23.293 302.721 23.1432 302.988 23.0391C303.262 22.9284 303.542 22.873 303.828 22.873ZM304.014 24.2988C303.831 24.2988 303.662 24.3639 303.506 24.4941C303.35 24.6243 303.252 24.7839 303.213 24.9727L302.031 30.5195C301.992 30.7018 302.021 30.8581 302.119 30.9883C302.223 31.1185 302.367 31.1836 302.549 31.1836H304.873C305.062 31.1836 305.231 31.1185 305.381 30.9883C305.537 30.8516 305.635 30.6953 305.674 30.5195L306.855 24.9727C306.895 24.7904 306.865 24.6341 306.768 24.5039C306.67 24.3672 306.527 24.2988 306.338 24.2988H304.014ZM314.512 30.5C314.303 30.9232 314.033 31.2943 313.701 31.6133C313.369 31.9258 312.998 32.1699 312.588 32.3457C312.178 32.5215 311.755 32.6094 311.318 32.6094H311.191C310.84 32.6094 310.505 32.5573 310.186 32.4531C309.873 32.349 309.6 32.2057 309.365 32.0234C309.137 31.8411 308.971 31.6263 308.867 31.3789C308.77 31.125 308.75 30.8418 308.809 30.5293L310.43 22.873H312.324L310.83 29.9238C310.778 30.1712 310.801 30.3763 310.898 30.5391C311.003 30.6953 311.152 30.793 311.348 30.832C311.549 30.8646 311.761 30.832 311.982 30.7344C312.204 30.6367 312.412 30.4837 312.607 30.2754C312.803 30.0605 312.975 29.7936 313.125 29.4746L314.805 25.9883L315.645 24.2402C315.781 23.9668 315.957 23.7292 316.172 23.5273C316.387 23.319 316.628 23.1595 316.895 23.0488C317.161 22.9316 317.435 22.873 317.715 22.873H318.408C318.662 22.873 318.89 22.9219 319.092 23.0195C319.294 23.1172 319.46 23.2507 319.59 23.4199C319.727 23.5892 319.818 23.7845 319.863 24.0059C319.915 24.2272 319.915 24.4681 319.863 24.7285L318.76 29.9238C318.708 30.1712 318.73 30.3763 318.828 30.5391C318.932 30.6953 319.082 30.793 319.277 30.832C319.479 30.8646 319.691 30.832 319.912 30.7344C320.133 30.6367 320.342 30.4837 320.537 30.2754C320.732 30.0605 320.905 29.7936 321.055 29.4746L324.238 22.873H326.104L322.441 30.5C322.233 30.9232 321.963 31.2943 321.631 31.6133C321.299 31.9258 320.928 32.1699 320.518 32.3457C320.107 32.5215 319.684 32.6094 319.248 32.6094H319.121C318.77 32.6094 318.434 32.5573 318.115 32.4531C317.803 32.349 317.529 32.2057 317.295 32.0234C317.067 31.8411 316.901 31.6263 316.797 31.3789C316.699 31.125 316.68 30.8418 316.738 30.5293L317.969 24.7383C318.014 24.4974 317.923 24.377 317.695 24.377C317.539 24.377 317.35 24.5951 317.129 25.0312L314.512 30.5ZM338.818 29.4844C338.844 29.7969 338.91 30.0573 339.014 30.2656C339.118 30.4674 339.258 30.6204 339.434 30.7246C339.609 30.8288 339.805 30.8646 340.02 30.832C340.234 30.793 340.426 30.6921 340.596 30.5293C340.765 30.36 340.876 30.1582 340.928 29.9238L343.154 19.4648H345.059L342.705 30.5195C342.627 30.832 342.484 31.1152 342.275 31.3691C342.067 31.623 341.807 31.8411 341.494 32.0234C341.188 32.2057 340.853 32.349 340.488 32.4531C340.13 32.5573 339.782 32.6094 339.443 32.6094H339.316C338.874 32.6094 338.483 32.5215 338.145 32.3457C337.812 32.1699 337.546 31.9225 337.344 31.6035C337.148 31.2845 337.038 30.9134 337.012 30.4902L336.572 22.5898C336.546 22.2773 336.481 22.0202 336.377 21.8184C336.273 21.61 336.133 21.4538 335.957 21.3496C335.788 21.2454 335.592 21.2129 335.371 21.252C335.156 21.2845 334.964 21.3854 334.795 21.5547C334.626 21.7174 334.515 21.916 334.463 22.1504L332.246 32.6094H330.342L332.686 21.5547C332.764 21.2422 332.907 20.959 333.115 20.7051C333.324 20.4512 333.581 20.2331 333.887 20.0508C334.199 19.8685 334.538 19.7253 334.902 19.6211C335.267 19.5169 335.618 19.4648 335.957 19.4648H336.084C336.52 19.4648 336.904 19.5527 337.236 19.7285C337.575 19.9043 337.842 20.1517 338.037 20.4707C338.239 20.7897 338.353 21.1608 338.379 21.584L338.818 29.4844ZM347.676 22.873H350.977C351.263 22.873 351.517 22.9284 351.738 23.0391C351.966 23.1432 352.155 23.293 352.305 23.4883C352.454 23.6771 352.555 23.8952 352.607 24.1426C352.666 24.39 352.666 24.6569 352.607 24.9434L351.416 30.5488C351.357 30.8288 351.247 31.0957 351.084 31.3496C350.921 31.597 350.723 31.8151 350.488 32.0039C350.26 32.1927 350.01 32.3424 349.736 32.4531C349.469 32.5573 349.193 32.6094 348.906 32.6094H345.605C345.319 32.6094 345.062 32.5573 344.834 32.4531C344.613 32.3424 344.427 32.1927 344.277 32.0039C344.128 31.8151 344.023 31.597 343.965 31.3496C343.913 31.0957 343.919 30.8288 343.984 30.5488L345.166 24.9434C345.231 24.6569 345.342 24.39 345.498 24.1426C345.661 23.8952 345.856 23.6771 346.084 23.4883C346.318 23.293 346.569 23.1432 346.836 23.0391C347.109 22.9284 347.389 22.873 347.676 22.873ZM347.861 24.2988C347.679 24.2988 347.51 24.3639 347.354 24.4941C347.197 24.6243 347.1 24.7839 347.061 24.9727L345.879 30.5195C345.84 30.7018 345.869 30.8581 345.967 30.9883C346.071 31.1185 346.214 31.1836 346.396 31.1836H348.721C348.91 31.1836 349.079 31.1185 349.229 30.9883C349.385 30.8516 349.482 30.6953 349.521 30.5195L350.703 24.9727C350.742 24.7904 350.713 24.6341 350.615 24.5039C350.518 24.3672 350.374 24.2988 350.186 24.2988H347.861ZM358.359 30.5C358.151 30.9232 357.881 31.2943 357.549 31.6133C357.217 31.9258 356.846 32.1699 356.436 32.3457C356.025 32.5215 355.602 32.6094 355.166 32.6094H355.039C354.688 32.6094 354.352 32.5573 354.033 32.4531C353.721 32.349 353.447 32.2057 353.213 32.0234C352.985 31.8411 352.819 31.6263 352.715 31.3789C352.617 31.125 352.598 30.8418 352.656 30.5293L354.277 22.873H356.172L354.678 29.9238C354.626 30.1712 354.648 30.3763 354.746 30.5391C354.85 30.6953 355 30.793 355.195 30.832C355.397 30.8646 355.609 30.832 355.83 30.7344C356.051 30.6367 356.26 30.4837 356.455 30.2754C356.65 30.0605 356.823 29.7936 356.973 29.4746L358.652 25.9883L359.492 24.2402C359.629 23.9668 359.805 23.7292 360.02 23.5273C360.234 23.319 360.475 23.1595 360.742 23.0488C361.009 22.9316 361.283 22.873 361.562 22.873H362.256C362.51 22.873 362.738 22.9219 362.939 23.0195C363.141 23.1172 363.307 23.2507 363.438 23.4199C363.574 23.5892 363.665 23.7845 363.711 24.0059C363.763 24.2272 363.763 24.4681 363.711 24.7285L362.607 29.9238C362.555 30.1712 362.578 30.3763 362.676 30.5391C362.78 30.6953 362.93 30.793 363.125 30.832C363.327 30.8646 363.538 30.832 363.76 30.7344C363.981 30.6367 364.189 30.4837 364.385 30.2754C364.58 30.0605 364.753 29.7936 364.902 29.4746L368.086 22.873H369.951L366.289 30.5C366.081 30.9232 365.811 31.2943 365.479 31.6133C365.146 31.9258 364.775 32.1699 364.365 32.3457C363.955 32.5215 363.532 32.6094 363.096 32.6094H362.969C362.617 32.6094 362.282 32.5573 361.963 32.4531C361.65 32.349 361.377 32.2057 361.143 32.0234C360.915 31.8411 360.749 31.6263 360.645 31.3789C360.547 31.125 360.527 30.8418 360.586 30.5293L361.816 24.7383C361.862 24.4974 361.771 24.377 361.543 24.377C361.387 24.377 361.198 24.5951 360.977 25.0312L358.359 30.5Z" fill="white"/>
<path d="M275 35.8516H369.141V37.3164H275V35.8516Z" fill="white"/>
<path fill-rule="evenodd" clip-rule="evenodd" d="M387.187 27.9998L384.083 36L383.186 34.0003L385.682 27L383.186 19.9997L384.083 18L387.187 26.0002C387.305 26.2654 387.372 26.625 387.372 27C387.372 27.375 387.305 27.7346 387.187 27.9998Z" fill="white"/>
<path fill-rule="evenodd" clip-rule="evenodd" d="M383 27.9998L379.897 36L379 34.0003L381.496 27L379 19.9997L379.897 18L383 26.0002C383.119 26.2654 383.186 26.625 383.186 27C383.186 27.375 383.119 27.7346 383 27.9998Z" fill="white"/>
<defs>
<linearGradient id="paint0_linear_1573_1087" x1="87.7293" y1="4.63314" x2="96.9026" y2="77.706" gradientUnits="userSpaceOnUse">
<stop stop-color="#CC4699"/>
<stop offset="0.28062" stop-color="#673E7D" stop-opacity="0"/>
<stop offset="0.604243" stop-color="#B8D8FF" stop-opacity="0"/>
<stop offset="1" stop-color="#1BC6BD"/>
</linearGradient>
<clipPath id="clip0_1573_1087">
<rect width="18" height="18" fill="white" transform="translate(24 18)"/>
</clipPath>
</defs>
</svg>
