<svg width="55" height="55" viewBox="0 0 55 55" fill="none" xmlns="http://www.w3.org/2000/svg">
<circle cx="27.3062" cy="27.3062" r="26.8062" transform="matrix(-1 0 0 1 54.6123 0)" fill="#1D1D1D"/>
<circle cx="27.3062" cy="27.3062" r="26.8062" transform="matrix(-1 0 0 1 54.6123 0)" stroke="#F5F5F5"/>
<path d="M21.7423 17C18.3569 17 15.6123 19.8784 15.6123 23.4289C15.6123 29.8578 22.8568 35.7023 26.7577 37.0617C30.6586 35.7023 37.9031 29.8578 37.9031 23.4289C37.9031 19.8784 35.1585 17 31.7731 17C29.7001 17 27.8667 18.0795 26.7577 19.7317C26.1924 18.8874 25.4414 18.1984 24.5684 17.7229C23.6954 17.2474 22.726 16.9994 21.7423 17Z" stroke="white" stroke-linecap="round" stroke-linejoin="round"/>
</svg>
