<svg width="14" height="12" viewBox="0 0 14 12" fill="none" xmlns="http://www.w3.org/2000/svg">
<path d="M7.98808 0.979407L8.87916 8.67844e-05L13.7326 5.33739C13.8109 5.42291 13.8729 5.52461 13.9153 5.63663C13.9577 5.74865 13.9795 5.86878 13.9795 5.99011C13.9795 6.11144 13.9577 6.23158 13.9153 6.3436C13.8729 6.45562 13.8109 6.55732 13.7326 6.64284L8.87916 11.9829L7.98892 11.0036L12.5442 5.9915L7.98808 0.979407Z" fill="white"/>
<path fill-rule="evenodd" clip-rule="evenodd" d="M6.71206 6.65726L1.34222 11.9831L0 10.6519L4.69873 5.99166L0 1.33146L1.34222 0.000244141L6.71206 5.32605C6.89001 5.5026 6.98998 5.74202 6.98998 5.99166C6.98998 6.24129 6.89001 6.48072 6.71206 6.65726Z" fill="white"/>
</svg>
