<svg width="56" height="55" viewBox="0 0 56 55" fill="none" xmlns="http://www.w3.org/2000/svg">
<path d="M27.8636 0.5C12.7416 0.5 0.500309 12.5115 0.500309 27.3066C0.50057 42.1016 12.7418 54.1123 27.8636 54.1123C42.9853 54.1122 55.2266 42.1015 55.2269 27.3066C55.2269 12.5115 42.9855 0.500082 27.8636 0.5Z" fill="#1D1D1D"/>
<path d="M27.8636 0.5C12.7416 0.5 0.500309 12.5115 0.500309 27.3066C0.50057 42.1016 12.7418 54.1123 27.8636 54.1123C42.9853 54.1122 55.2266 42.1015 55.2269 27.3066C55.2269 12.5115 42.9855 0.500082 27.8636 0.5Z" stroke="#F5F5F5"/>
<path d="M21.7755 25.8018V30.2599H25.1191V38.0617H29.5772V30.2599H32.9208L34.0354 25.8018H29.5772V23.5727C29.5772 22.9653 30.0843 22.4581 30.6918 22.4581H34.0354V18H30.6918C27.6569 18 25.1191 20.5378 25.1191 23.5727V25.8018H21.7755Z" stroke="white" stroke-linecap="round" stroke-linejoin="round"/>
</svg>
