<svg width="55" height="55" viewBox="0 0 55 55" fill="none" xmlns="http://www.w3.org/2000/svg">
<circle cx="27.3062" cy="27.3062" r="26.8062" transform="matrix(-1 0 0 1 54.6123 0)" fill="#1D1D1D"/>
<circle cx="27.3062" cy="27.3062" r="26.8062" transform="matrix(-1 0 0 1 54.6123 0)" stroke="#F5F5F5"/>
<path d="M23.9897 26.6748L29.711 23.7275M23.9897 28.9287L29.711 31.876M19.0486 27.8018C19.0486 28.4915 19.3226 29.153 19.8103 29.6407C20.298 30.1284 20.9595 30.4023 21.6492 30.4023C22.3389 30.4023 23.0004 30.1284 23.4881 29.6407C23.9758 29.153 24.2498 28.4915 24.2498 27.8018C24.2498 27.112 23.9758 26.4506 23.4881 25.9629C23.0004 25.4752 22.3389 25.2012 21.6492 25.2012C20.9595 25.2012 20.298 25.4752 19.8103 25.9629C19.3226 26.4506 19.0486 27.112 19.0486 27.8018ZM29.451 22.6006C29.451 23.2903 29.725 23.9518 30.2127 24.4395C30.7004 24.9272 31.3618 25.2012 32.0516 25.2012C32.7413 25.2012 33.4027 24.9272 33.8904 24.4395C34.3781 23.9518 34.6521 23.2903 34.6521 22.6006C34.6521 21.9109 34.3781 21.2494 33.8904 20.7617C33.4027 20.274 32.7413 20 32.0516 20C31.3618 20 30.7004 20.274 30.2127 20.7617C29.725 21.2494 29.451 21.9109 29.451 22.6006ZM29.451 33.0029C29.451 33.6927 29.725 34.3541 30.2127 34.8418C30.7004 35.3295 31.3618 35.6035 32.0516 35.6035C32.7413 35.6035 33.4027 35.3295 33.8904 34.8418C34.3781 34.3541 34.6521 33.6927 34.6521 33.0029C34.6521 32.3132 34.3781 31.6517 33.8904 31.164C33.4027 30.6763 32.7413 30.4023 32.0516 30.4023C31.3618 30.4023 30.7004 30.6763 30.2127 31.164C29.725 31.6517 29.451 32.3132 29.451 33.0029Z" stroke="white" stroke-linecap="round" stroke-linejoin="round"/>
</svg>
