<svg width="28" height="22" viewBox="0 0 28 22" fill="none" xmlns="http://www.w3.org/2000/svg">
<path d="M21.4623 8C21.4623 9.44792 20.9846 10.7865 20.0294 12.0156C19.0742 13.2448 17.7709 14.2161 16.1196 14.9297C14.4682 15.6432 12.6721 16 10.7311 16C10.5464 16 10.3608 15.9963 10.1743 15.9888C8.80804 15.9343 7.44451 16.2516 6.21707 16.8541C5.4596 17.2259 4.65749 17.5246 3.81077 17.75C3.45585 17.841 3.03397 17.9221 2.54513 17.9934C2.515 17.9978 2.48458 18 2.45414 18C2.34235 18 2.23819 17.9583 2.14165 17.875C2.0702 17.8133 2.01962 17.7374 1.98992 17.6472C1.96846 17.582 1.95111 17.5139 1.95111 17.4453C1.95111 17.4089 1.95365 17.375 1.95874 17.3438C1.96382 17.3125 1.97398 17.2812 1.98922 17.25L2.02733 17.1719L2.08068 17.0859L2.14165 17.0078L2.21025 16.9297L2.27122 16.8594C2.32203 16.7969 2.43889 16.6667 2.62181 16.4688C2.80473 16.2708 2.93683 16.1172 3.01813 16.0078C3.09943 15.8984 3.21375 15.7474 3.3611 15.5547C3.50845 15.362 3.63547 15.1615 3.74218 14.9531C3.9402 14.5665 3.77608 14.1049 3.41931 13.8571C2.45682 13.1885 1.6778 12.4028 1.08226 11.5C0.360753 10.4062 0 9.23958 0 8C0 6.55208 0.477616 5.21354 1.43285 3.98438C2.38808 2.75521 3.69137 1.78385 5.3427 1.07031C6.99403 0.356771 8.79018 0 10.7311 0C12.6721 0 14.4682 0.356771 16.1196 1.07031C17.7709 1.78385 19.0742 2.75521 20.0294 3.98438C20.9846 5.21354 21.4623 6.55208 21.4623 8ZM27.3156 12C27.3156 13.25 26.9548 14.4193 26.2333 15.5078C25.6378 16.4063 24.8588 17.1894 23.8964 17.8573C23.5395 18.1049 23.3754 18.5665 23.5734 18.9531C23.6801 19.1615 23.8072 19.362 23.9545 19.5547C24.1019 19.7474 24.2162 19.8984 24.2975 20.0078C24.3788 20.1172 24.5109 20.2708 24.6938 20.4688C24.8767 20.6667 24.9936 20.7969 25.0444 20.8594C25.0545 20.8698 25.0749 20.8932 25.1054 20.9297C25.1358 20.9661 25.1587 20.9922 25.1739 21.0078C25.1892 21.0234 25.2095 21.0495 25.2349 21.0859C25.2603 21.1224 25.2781 21.151 25.2883 21.1719L25.3264 21.25L25.3406 21.2937C25.3514 21.3269 25.3582 21.3614 25.3608 21.3963C25.3633 21.4289 25.362 21.4616 25.3572 21.494L25.3492 21.5469C25.3188 21.6927 25.2527 21.8073 25.1511 21.8906C25.0495 21.974 24.9377 22.0104 24.8157 22C24.3076 21.9271 23.8707 21.8438 23.5048 21.75C22.6581 21.5246 21.856 21.2259 21.0985 20.8541C19.8711 20.2516 18.5076 19.9343 17.1413 19.9888C16.9548 19.9963 16.7692 20 16.5845 20C14.3335 20 12.3202 19.5407 10.5444 18.6221C10.2182 18.4533 10.3639 18 10.7311 18C12.3672 18 13.9373 17.7656 15.4412 17.2969C16.9452 16.8281 18.2866 16.1562 19.4654 15.2812C20.7357 14.3229 21.7112 13.2188 22.3921 11.9688C23.0729 10.7188 23.4134 9.39583 23.4134 8C23.4134 7.12576 24.3691 6.44084 25.0044 7.04143C25.447 7.45993 25.8364 7.91487 26.1724 8.40625C26.9345 9.52083 27.3156 10.7188 27.3156 12Z" fill="#1BC6BD"/>
</svg>
