<svg width="25" height="17" viewBox="0 0 25 17" fill="none" xmlns="http://www.w3.org/2000/svg">
<path d="M24.5368 8.23727C23.5729 5.88636 21.8995 3.85329 19.7235 2.38934C17.5474 0.925384 14.9641 0.0947154 12.2928 0C9.62155 0.0947154 7.03825 0.925384 4.8622 2.38934C2.68616 3.85329 1.01277 5.88636 0.0488545 8.23727C-0.0162441 8.40705 -0.0162441 8.59295 0.0488545 8.76273C1.01277 11.1136 2.68616 13.1467 4.8622 14.6107C7.03825 16.0746 9.62155 16.9053 12.2928 17C14.9641 16.9053 17.5474 16.0746 19.7235 14.6107C21.8995 13.1467 23.5729 11.1136 24.5368 8.76273C24.6019 8.59295 24.6019 8.40705 24.5368 8.23727Z" fill="#B8D8FF"/>
<path d="M12.2928 12.0889C11.5982 12.0889 10.9191 11.9116 10.3416 11.5795C9.76397 11.2475 9.3138 10.7754 9.04796 10.2232C8.78213 9.67097 8.71258 9.0633 8.8481 8.47705C8.98362 7.8908 9.31813 7.35229 9.80932 6.92962C10.3005 6.50696 10.9263 6.21912 11.6076 6.10251C12.2889 5.98589 12.9951 6.04574 13.6369 6.27449C14.2787 6.50323 14.8272 6.8906 15.2132 7.3876C15.5991 7.8846 15.8051 8.46892 15.8051 9.06666C15.8051 9.8682 15.435 10.6369 14.7764 11.2037C14.1177 11.7705 13.2243 12.0889 12.2928 12.0889Z" fill="#111111"/>
</svg>
