<svg width="26" height="26" viewBox="0 0 26 26" fill="none" xmlns="http://www.w3.org/2000/svg">
<path d="M23.5625 4.08789H17.7531C16.5064 4.08789 15.2877 4.4459 14.2391 5.12129L13 5.91602L11.7609 5.12129C10.7133 4.44603 9.49324 4.08723 8.24687 4.08789H2.4375C1.98809 4.08789 1.625 4.45098 1.625 4.90039V19.3223C1.625 19.7717 1.98809 20.1348 2.4375 20.1348H8.24687C9.49355 20.1348 10.7123 20.4928 11.7609 21.1682L12.8883 21.8943C12.9213 21.9146 12.9594 21.9273 12.9975 21.9273C13.0355 21.9273 13.0736 21.9172 13.1066 21.8943L14.234 21.1682C15.2852 20.4928 16.5064 20.1348 17.7531 20.1348H23.5625C24.0119 20.1348 24.375 19.7717 24.375 19.3223V4.90039C24.375 4.45098 24.0119 4.08789 23.5625 4.08789ZM10.2578 14.0537C10.2578 14.1578 10.1766 14.2441 10.0775 14.2441H5.35996C5.26094 14.2441 5.17969 14.1578 5.17969 14.0537V12.9111C5.17969 12.807 5.26094 12.7207 5.35996 12.7207H10.075C10.174 12.7207 10.2553 12.807 10.2553 12.9111V14.0537H10.2578ZM10.2578 10.499C10.2578 10.6031 10.1766 10.6895 10.0775 10.6895H5.35996C5.26094 10.6895 5.17969 10.6031 5.17969 10.499V9.35645C5.17969 9.25234 5.26094 9.16602 5.35996 9.16602H10.075C10.174 9.16602 10.2553 9.25234 10.2553 9.35645V10.499H10.2578ZM20.8203 14.0537C20.8203 14.1578 20.7391 14.2441 20.64 14.2441H15.9225C15.8234 14.2441 15.7422 14.1578 15.7422 14.0537V12.9111C15.7422 12.807 15.8234 12.7207 15.9225 12.7207H20.6375C20.7365 12.7207 20.8178 12.807 20.8178 12.9111V14.0537H20.8203ZM20.8203 10.499C20.8203 10.6031 20.7391 10.6895 20.64 10.6895H15.9225C15.8234 10.6895 15.7422 10.6031 15.7422 10.499V9.35645C15.7422 9.25234 15.8234 9.16602 15.9225 9.16602H20.6375C20.7365 9.16602 20.8178 9.25234 20.8178 9.35645V10.499H20.8203Z" fill="white"/>
</svg>
