<svg width="25" height="25" viewBox="0 0 25 25" fill="none" xmlns="http://www.w3.org/2000/svg">
<path d="M16.6673 7.63826C16.6673 11.8567 12.935 15.2765 8.3347 15.2765C7.17594 15.2765 6.0736 15.0595 5.07107 14.6689L1.5297 16.5438C1.12608 16.7564 0.631334 16.6827 0.305839 16.3615C-0.0196548 16.0404 -0.0934336 15.5413 0.123563 15.1376L1.66858 12.2212C0.622654 10.9453 0.00204477 9.35687 0.00204477 7.63826C0.00204477 3.41986 3.73438 0 8.3347 0C12.935 0 16.6673 3.41986 16.6673 7.63826ZM16.6673 23.6092C12.5835 23.6092 9.18532 20.9141 8.47357 17.3597C13.6815 17.2946 18.208 13.5883 18.7071 8.56267C22.3223 9.39593 25 12.3948 25 15.9709C25 17.6895 24.3794 19.2779 23.3335 20.5539L24.8785 23.4703C25.0911 23.8739 25.0174 24.3687 24.6962 24.6942C24.375 25.0197 23.876 25.0934 23.4723 24.8764L19.931 23.0016C18.9284 23.3922 17.8261 23.6092 16.6673 23.6092Z" fill="white"/>
</svg>
