<svg width="33" height="33" viewBox="0 0 33 33" fill="none" xmlns="http://www.w3.org/2000/svg">
<g clip-path="url(#clip0_496_102)">
<path d="M27.8442 18.5626C27.753 18.5626 27.6656 18.5988 27.6011 18.6633C27.5366 18.7277 27.5004 18.8152 27.5004 18.9063V23.0313C27.5004 23.1225 27.5366 23.2099 27.6011 23.2744C27.6656 23.3389 27.753 23.3751 27.8442 23.3751H30.9379C31.4849 23.3751 32.0095 23.1578 32.3963 22.771C32.7831 22.3842 33.0004 21.8596 33.0004 21.3126V18.9063C33.0004 18.8152 32.9642 18.7277 32.8997 18.6633C32.8353 18.5988 32.7478 18.5626 32.6567 18.5626H27.8442ZM25.7817 17.1876C25.8728 17.1876 25.9603 17.1514 26.0247 17.0869C26.0892 17.0224 26.1254 16.935 26.1254 16.8438V14.4376C26.1254 14.2553 26.1978 14.0804 26.3268 13.9515C26.4557 13.8225 26.6306 13.7501 26.8129 13.7501C26.9952 13.7501 27.1701 13.8225 27.299 13.9515C27.428 14.0804 27.5004 14.2553 27.5004 14.4376V16.8438C27.5004 16.935 27.5366 17.0224 27.6011 17.0869C27.6656 17.1514 27.753 17.1876 27.8442 17.1876H32.6567C32.7478 17.1876 32.8353 17.1514 32.8997 17.0869C32.9642 17.0224 33.0004 16.935 33.0004 16.8438V14.4376C33.0004 13.8906 32.7831 13.366 32.3963 12.9792C32.0095 12.5924 31.4849 12.3751 30.9379 12.3751H29.7829C29.7158 12.3753 29.6501 12.3559 29.5939 12.3193C29.5377 12.2826 29.4935 12.2303 29.4667 12.1688C29.4412 12.1036 29.4355 12.0324 29.4501 11.964C29.4648 11.8955 29.4992 11.8329 29.5492 11.7838L30.2504 11.0001C30.3423 10.8077 30.3723 10.5915 30.3362 10.3813C30.3002 10.1711 30.1998 9.97726 30.049 9.82646C29.8983 9.67567 29.7044 9.57533 29.4942 9.53927C29.284 9.5032 29.0678 9.53319 28.8754 9.6251L27.0604 11.3576C27.0283 11.3909 26.9899 11.4173 26.9474 11.4354C26.9049 11.4535 26.8591 11.4628 26.8129 11.4628C26.7667 11.4628 26.721 11.4535 26.6784 11.4354C26.6359 11.4173 26.5975 11.3909 26.5654 11.3576L24.7504 9.6251C24.558 9.53319 24.3418 9.5032 24.1316 9.53927C23.9214 9.57533 23.7276 9.67567 23.5768 9.82646C23.426 9.97726 23.3256 10.1711 23.2896 10.3813C23.2535 10.5915 23.2835 10.8077 23.3754 11.0001L24.1179 11.7426C24.1678 11.7916 24.2023 11.8543 24.2169 11.9227C24.2316 11.9912 24.2259 12.0624 24.2004 12.1276C24.1736 12.1891 24.1293 12.2414 24.0731 12.278C24.0169 12.3147 23.9513 12.3341 23.8842 12.3338H22.6879C22.4136 12.3338 22.1419 12.3885 21.889 12.4947C21.636 12.6009 21.4068 12.7565 21.2147 12.9525C21.0227 13.1484 20.8716 13.3806 20.7704 13.6356C20.6692 13.8907 20.6199 14.1633 20.6254 14.4376V16.8438C20.6254 16.935 20.6616 17.0224 20.7261 17.0869C20.7906 17.1514 20.878 17.1876 20.9692 17.1876H25.7817ZM26.1254 18.9063C26.1254 18.8152 26.0892 18.7277 26.0247 18.6633C25.9603 18.5988 25.8728 18.5626 25.7817 18.5626H20.9692C20.878 18.5626 20.7906 18.5988 20.7261 18.6633C20.6616 18.7277 20.6254 18.8152 20.6254 18.9063V21.3126C20.6254 21.8596 20.8427 22.3842 21.2295 22.771C21.6163 23.1578 22.1409 23.3751 22.6879 23.3751H25.7817C25.8728 23.3751 25.9603 23.3389 26.0247 23.2744C26.0892 23.2099 26.1254 23.1225 26.1254 23.0313V18.9063Z" fill="white"/>
<path d="M14.5887 21.3125H17.875C18.2397 21.3125 18.5894 21.1676 18.8473 20.9098C19.1051 20.6519 19.25 20.3022 19.25 19.9375C19.25 19.5728 19.1051 19.2231 18.8473 18.9652C18.5894 18.7074 18.2397 18.5625 17.875 18.5625H15.3588C15.26 18.5634 15.1622 18.5429 15.072 18.5026C14.9819 18.4623 14.9014 18.403 14.8363 18.3288C14.7722 18.2591 14.7241 18.1761 14.6956 18.0859C14.6671 17.9956 14.6588 17.9001 14.6713 17.8062L15.6063 8.86875C15.6234 8.69858 15.7033 8.54089 15.8304 8.42648C15.9575 8.31206 16.1227 8.24914 16.2938 8.25H25.4375C25.8022 8.25 26.1519 8.10513 26.4098 7.84727C26.6676 7.58941 26.8125 7.23967 26.8125 6.875C26.8125 6.51033 26.6676 6.16059 26.4098 5.90273C26.1519 5.64487 25.8022 5.5 25.4375 5.5H24.4062C24.3151 5.5 24.2276 5.46378 24.1632 5.39932C24.0987 5.33485 24.0625 5.24742 24.0625 5.15625V4.125C24.0625 3.03098 23.6279 1.98177 22.8543 1.20818C22.0807 0.434597 21.0315 0 19.9375 0C18.8435 0 17.7943 0.434597 17.0207 1.20818C16.2471 1.98177 15.8125 3.03098 15.8125 4.125V5.3625C15.8147 5.38109 15.8127 5.39994 15.8065 5.41763C15.8004 5.43532 15.7904 5.45138 15.7771 5.46462C15.7639 5.47786 15.7478 5.48792 15.7301 5.49405C15.7124 5.50018 15.6936 5.50221 15.675 5.5C14.993 5.49623 14.334 5.746 13.8258 6.20081C13.3176 6.65563 12.9966 7.28304 12.925 7.96125L11.8387 18.2738C11.7993 18.6583 11.8413 19.0469 11.9621 19.4141C12.083 19.7814 12.2799 20.119 12.54 20.405C12.7987 20.6916 13.1148 20.9205 13.4678 21.0769C13.8207 21.2332 14.2027 21.3135 14.5887 21.3125ZM18.5625 4.125C18.5625 3.76033 18.7074 3.41059 18.9652 3.15273C19.2231 2.89487 19.5728 2.75 19.9375 2.75C20.3022 2.75 20.6519 2.89487 20.9098 3.15273C21.1676 3.41059 21.3125 3.76033 21.3125 4.125V5.15625C21.3125 5.24742 21.2763 5.33485 21.2118 5.39932C21.1474 5.46378 21.0599 5.5 20.9688 5.5H18.9062C18.8151 5.5 18.7276 5.46378 18.6632 5.39932C18.5987 5.33485 18.5625 5.24742 18.5625 5.15625V4.125ZM1.375 20.2812C1.01033 20.2812 0.660591 20.4261 0.402728 20.684C0.144866 20.9418 0 21.2916 0 21.6562L0 31.625C0 31.9897 0.144866 32.3394 0.402728 32.5973C0.660591 32.8551 1.01033 33 1.375 33C1.73967 33 2.08941 32.8551 2.34727 32.5973C2.60513 32.3394 2.75 31.9897 2.75 31.625V21.6562C2.75 21.2916 2.60513 20.9418 2.34727 20.684C2.08941 20.4261 1.73967 20.2812 1.375 20.2812ZM21.3125 26.8125H8.7725C8.65052 26.828 8.52665 26.8173 8.40912 26.7812C8.29159 26.745 8.1831 26.6843 8.09085 26.603C7.9986 26.5217 7.92472 26.4217 7.87411 26.3097C7.8235 26.1976 7.79733 26.0761 7.79733 25.9531C7.79733 25.8302 7.8235 25.7086 7.87411 25.5966C7.92472 25.4845 7.9986 25.3845 8.09085 25.3032C8.1831 25.2219 8.29159 25.1612 8.40912 25.1251C8.52665 25.089 8.65052 25.0783 8.7725 25.0938H12.2375C12.4644 25.0936 12.6878 25.0372 12.8877 24.9297C13.0876 24.8222 13.2577 24.6669 13.383 24.4777C13.5082 24.2884 13.5847 24.0711 13.6056 23.8451C13.6264 23.6191 13.591 23.3915 13.5025 23.1825C13.2669 22.6265 12.8725 22.1525 12.3686 21.8198C11.8647 21.4872 11.2738 21.3107 10.67 21.3125H4.8125C4.63016 21.3125 4.4553 21.3849 4.32636 21.5139C4.19743 21.6428 4.125 21.8177 4.125 22V30.9375C4.125 31.1198 4.19743 31.2947 4.32636 31.4236C4.4553 31.5526 4.63016 31.625 4.8125 31.625H19.6075C20.012 31.625 20.4125 31.5453 20.7862 31.3905C21.1598 31.2358 21.4994 31.0089 21.7854 30.7229C22.0714 30.4369 22.2983 30.0973 22.453 29.7237C22.6078 29.35 22.6875 28.9495 22.6875 28.545V28.1875C22.6875 27.8228 22.5426 27.4731 22.2848 27.2152C22.0269 26.9574 21.6772 26.8125 21.3125 26.8125Z" fill="white"/>
</g>
<defs>
<clipPath id="clip0_496_102">
<rect width="33" height="33" fill="white"/>
</clipPath>
</defs>
</svg>
