<svg width="16" height="8" viewBox="0 0 16 8" fill="none" xmlns="http://www.w3.org/2000/svg">
<path fill-rule="evenodd" clip-rule="evenodd" d="M8.60881 0.238179C8.5287 0.16268 8.43355 0.102779 8.32878 0.0619085C8.22402 0.0210378 8.1117 0 7.99828 0C7.88485 0 7.77254 0.0210378 7.66777 0.0619085C7.56301 0.102779 7.46785 0.16268 7.38774 0.238179L4.77315 2.70114C4.63722 2.82863 4.45992 2.90983 4.26935 2.93186C4.07878 2.95388 3.88584 2.91549 3.7211 2.82275L1.30657 1.46074C1.16161 1.37883 0.994234 1.3388 0.825263 1.34564C0.656291 1.35247 0.493187 1.40587 0.356248 1.49919C0.21931 1.5925 0.114582 1.72162 0.0550969 1.87046C-0.0043879 2.01931 -0.0160031 2.18131 0.0216966 2.33632L1.23931 7.36926C1.28266 7.54827 1.38936 7.70815 1.54194 7.82273C1.69452 7.93731 1.88394 7.99981 2.07922 8H13.9208C14.1163 7.99972 14.3059 7.93699 14.4585 7.82209C14.6111 7.70719 14.7177 7.54695 14.7607 7.36764L15.9783 2.33632C16.016 2.18131 16.0044 2.01931 15.9449 1.87046C15.8854 1.72162 15.7807 1.5925 15.6438 1.49919C15.5068 1.40587 15.3437 1.35247 15.1747 1.34564C15.0058 1.3388 14.8384 1.37883 14.6934 1.46074L12.2789 2.82275C12.1142 2.91549 11.9212 2.95388 11.7307 2.93186C11.5401 2.90983 11.3628 2.82863 11.2268 2.70114L8.60881 0.238179Z" fill="#F5EE3B"/>
</svg>
