<svg width="14" height="11" viewBox="0 0 14 11" fill="none" xmlns="http://www.w3.org/2000/svg">
<path d="M1.42798 10.6777C2.70429 8.90159 4.28159 8.34389 6.22211 8.20251V9.22342C6.22211 9.60281 6.38389 9.95945 6.67788 10.228C7.26587 10.7651 8.29329 10.7616 8.87351 10.2316L13.768 5.82179C13.8415 5.75568 13.8998 5.67688 13.9397 5.58998C13.9795 5.50308 14 5.4098 14 5.31559C14 5.22138 13.9795 5.12811 13.9397 5.0412C13.8998 4.9543 13.8415 4.8755 13.768 4.8094L8.87739 0.40247C8.29096 -0.13392 7.26509 -0.13463 6.6771 0.403181C6.38389 0.671731 6.22211 1.02838 6.22211 1.40776V2.61837C2.62962 3.28122 2.86102e-06 6.16849 2.86102e-06 9.57794V10.2884C-0.00043869 10.4415 0.0533466 10.5907 0.15333 10.7136C0.253313 10.8365 0.394132 10.9266 0.554763 10.9704C0.715395 11.0141 0.887225 11.0093 1.0446 10.9566C1.20198 10.9038 1.33646 10.806 1.42798 10.6777ZM6.98199 6.74466C5.26546 6.78445 3.37472 7.02458 1.72586 8.25153C2.02346 7.11475 2.6982 6.08968 3.65782 5.31651C4.61743 4.54333 5.81508 4.05978 7.08698 3.93199C7.47898 3.8922 7.77764 3.89505 7.77764 3.89505V1.4106L12.1144 5.31524L7.77764 9.22271V6.73685L6.98199 6.74466Z" fill="#1BC6BD"/>
</svg>
