<svg width="20" height="19" viewBox="0 0 20 19" fill="none" xmlns="http://www.w3.org/2000/svg">
<path d="M10 15.3605L5.30584 18.744C5.07325 18.9237 4.81951 19.0087 4.54463 18.9992C4.26975 18.9896 4.02658 18.9145 3.81513 18.774C3.60368 18.6335 3.44002 18.4438 3.32415 18.2051C3.20828 17.9663 3.20278 17.7068 3.30766 17.4266L5.11554 11.8872L0.516538 8.80312C0.2628 8.64342 0.104214 8.43383 0.0407793 8.17432C-0.0226552 7.91482 -0.0120827 7.67528 0.0724967 7.4557C0.157076 7.23612 0.30509 7.0413 0.516538 6.87122C0.727987 6.70115 0.981725 6.61651 1.27775 6.61731H6.95514L8.79474 0.86834C8.90047 0.588876 9.06455 0.374089 9.28699 0.223977C9.50944 0.0738647 9.74711 -0.000792131 10 6.33704e-06C10.2529 0.000804805 10.491 0.075861 10.7143 0.225175C10.9376 0.374488 11.1012 0.588876 11.2053 0.86834L13.0449 6.61731H18.7222C19.0183 6.61731 19.272 6.70235 19.4835 6.87242C19.6949 7.04249 19.8429 7.23692 19.9275 7.4557C20.0121 7.67448 20.0227 7.91402 19.9592 8.17432C19.8958 8.43462 19.7372 8.64422 19.4835 8.80312L14.8845 11.8872L16.6923 17.4266C16.7981 17.706 16.793 17.9655 16.6771 18.2051C16.5612 18.4446 16.3972 18.6343 16.1849 18.774C15.9726 18.9137 15.7294 18.9888 15.4554 18.9992C15.1813 19.0095 14.9276 18.9245 14.6942 18.744L10 15.3605Z" fill="#F5EE3B"/>
</svg>
