<svg width="14" height="10" viewBox="0 0 14 10" fill="none" xmlns="http://www.w3.org/2000/svg">
<path d="M13.9722 4.84545C13.4233 3.46257 12.4704 2.26664 11.2313 1.40549C9.99217 0.544343 8.52114 0.055715 7 0C5.47886 0.055715 4.00783 0.544343 2.76871 1.40549C1.52959 2.26664 0.576693 3.46257 0.0278023 4.84545C-0.00926742 4.94532 -0.00926742 5.05468 0.0278023 5.15455C0.576693 6.53743 1.52959 7.73336 2.76871 8.59451C4.00783 9.45566 5.47886 9.94429 7 10C8.52114 9.94429 9.99217 9.45566 11.2313 8.59451C12.4704 7.73336 13.4233 6.53743 13.9722 5.15455C14.0093 5.05468 14.0093 4.94532 13.9722 4.84545ZM7 9.09091C4.5266 9.09091 1.91319 7.30455 0.965829 5C1.91319 2.69545 4.5266 0.909091 7 0.909091C9.4734 0.909091 12.0868 2.69545 13.0342 5C12.0868 7.30455 9.4734 9.09091 7 9.09091Z" fill="#B8D8FF"/>
<path d="M7 2.66675C6.40666 2.66675 5.82664 2.82315 5.33329 3.11616C4.83994 3.40918 4.45543 3.82566 4.22836 4.31293C4.0013 4.80019 3.94189 5.33637 4.05765 5.85365C4.1734 6.37094 4.45912 6.84609 4.87868 7.21903C5.29824 7.59197 5.83279 7.84595 6.41473 7.94884C6.99667 8.05174 7.59987 7.99893 8.14805 7.79709C8.69623 7.59526 9.16476 7.25347 9.49441 6.81493C9.82405 6.3764 10 5.86083 10 5.33341C10 4.62617 9.68393 3.94789 9.12132 3.4478C8.55871 2.9477 7.79565 2.66675 7 2.66675ZM7 7.11119C6.60444 7.11119 6.21776 7.00693 5.88886 6.81158C5.55996 6.61624 5.30362 6.33859 5.15224 6.01374C5.00087 5.68889 4.96126 5.33144 5.03843 4.98659C5.1156 4.64173 5.30608 4.32496 5.58579 4.07634C5.86549 3.82771 6.22186 3.65839 6.60982 3.5898C6.99778 3.5212 7.39991 3.55641 7.76537 3.69096C8.13082 3.82552 8.44318 4.05338 8.66294 4.34573C8.8827 4.63809 9 4.9818 9 5.33341C9 5.80491 8.78929 6.25709 8.41421 6.59049C8.03914 6.92389 7.53043 7.11119 7 7.11119Z" fill="#B8D8FF"/>
</svg>
