<svg width="18" height="18" viewBox="0 0 18 18" fill="none" xmlns="http://www.w3.org/2000/svg">
<mask id="path-1-inside-1_2436_322" fill="white">
<path d="M1.125 6.64091C1.125 5.57837 1.125 4.81779 1.17 4.22262C1.21275 3.63496 1.29375 3.26282 1.431 2.96335L0.42975 2.39449C0.198 2.89945 0.0967498 3.45578 0.0472498 4.12112C-2.05357e-07 4.77895 0 5.59967 0 6.64091H1.125ZM1.125 8.14451V6.64091H0V8.14451H1.125ZM0 8.14451V14.4095H1.125V8.14451H0ZM0 14.4095V16.8078H1.125V14.4095H0ZM0 16.8078C0 17.8678 1.15088 18.3991 1.82475 17.6485L1.02937 16.7627C1.03905 16.7555 1.04968 16.75 1.06087 16.7464L1.09012 16.7489C1.09946 16.7548 1.1074 16.7631 1.11327 16.7731C1.11914 16.7832 1.12277 16.7946 1.12388 16.8065L0 16.8078ZM1.82475 17.6485L4.00612 15.219L3.21075 14.3331L1.02825 16.7639L1.82475 17.6485ZM12.0375 13.783H4.40325V15.036H12.0375V13.783ZM15.3394 13.4422C15.0705 13.5951 14.7364 13.6853 14.2087 13.7342C13.6732 13.783 12.9915 13.783 12.0375 13.783V15.036C12.9735 15.036 13.7093 15.036 14.2999 14.9821C14.8973 14.9283 15.3968 14.8155 15.8501 14.5586L15.3394 13.4422ZM16.5679 12.0727C16.2983 12.6617 15.8683 13.1419 15.3394 13.4422L15.8501 14.5586C16.5913 14.1381 17.1938 13.467 17.5714 12.6415L16.5679 12.0727ZM16.875 8.39511C16.875 9.45766 16.875 10.2182 16.83 10.8134C16.7872 11.4011 16.7062 11.7732 16.5679 12.0727L17.5714 12.6415C17.802 12.1366 17.9033 11.5802 17.9516 10.9149C18 10.2571 18 9.43636 18 8.39511H16.875ZM16.875 6.64091V8.39511H18V6.64091H16.875ZM16.5679 2.96335C16.7051 3.26282 16.7873 3.63496 16.8311 4.22262C16.875 4.81779 16.875 5.57837 16.875 6.64091H18C18 5.59841 18 4.77895 17.9516 4.12112C17.9033 3.45578 17.802 2.89945 17.5714 2.39449L16.5679 2.96335ZM15.3394 1.59382C15.8684 1.89441 16.2985 2.37382 16.5679 2.96335L17.5714 2.39449C17.1938 1.56901 16.5913 0.897898 15.8501 0.477394L15.3394 1.59382ZM12.0375 1.253C12.9915 1.253 13.6732 1.253 14.2087 1.30312C14.7364 1.35074 15.0705 1.44095 15.3394 1.59382L15.8501 0.477394C15.3968 0.219275 14.8973 0.107758 14.2999 0.0526259C13.7093 -2.28722e-07 12.9724 0 12.0375 0V1.253ZM5.9625 1.253H12.0375V0H5.9625V1.253ZM2.66062 1.59382C2.9295 1.44221 3.26362 1.35074 3.79125 1.30187C4.32562 1.253 5.0085 1.253 5.9625 1.253V0C5.0265 0 4.29075 2.754e-07 3.70012 0.0538794C3.10275 0.107758 2.60325 0.220528 2.14987 0.477394L2.66062 1.59382ZM1.431 2.96335C1.70069 2.37363 2.13115 1.89419 2.66062 1.59382L2.14987 0.477394C1.4089 0.897571 0.807488 1.56947 0.42975 2.39449L1.431 2.96335ZM4.00612 15.219C4.11154 15.1018 4.25435 15.0361 4.40325 15.036V13.783C3.95585 13.7835 3.52691 13.9818 3.21075 14.3343L4.00612 15.219Z"/>
</mask>
<path d="M1.125 6.64091C1.125 5.57837 1.125 4.81779 1.17 4.22262C1.21275 3.63496 1.29375 3.26282 1.431 2.96335L0.42975 2.39449C0.198 2.89945 0.0967498 3.45578 0.0472498 4.12112C-2.05357e-07 4.77895 0 5.59967 0 6.64091H1.125ZM1.125 8.14451V6.64091H0V8.14451H1.125ZM0 8.14451V14.4095H1.125V8.14451H0ZM0 14.4095V16.8078H1.125V14.4095H0ZM0 16.8078C0 17.8678 1.15088 18.3991 1.82475 17.6485L1.02937 16.7627C1.03905 16.7555 1.04968 16.75 1.06087 16.7464L1.09012 16.7489C1.09946 16.7548 1.1074 16.7631 1.11327 16.7731C1.11914 16.7832 1.12277 16.7946 1.12388 16.8065L0 16.8078ZM1.82475 17.6485L4.00612 15.219L3.21075 14.3331L1.02825 16.7639L1.82475 17.6485ZM12.0375 13.783H4.40325V15.036H12.0375V13.783ZM15.3394 13.4422C15.0705 13.5951 14.7364 13.6853 14.2087 13.7342C13.6732 13.783 12.9915 13.783 12.0375 13.783V15.036C12.9735 15.036 13.7093 15.036 14.2999 14.9821C14.8973 14.9283 15.3968 14.8155 15.8501 14.5586L15.3394 13.4422ZM16.5679 12.0727C16.2983 12.6617 15.8683 13.1419 15.3394 13.4422L15.8501 14.5586C16.5913 14.1381 17.1938 13.467 17.5714 12.6415L16.5679 12.0727ZM16.875 8.39511C16.875 9.45766 16.875 10.2182 16.83 10.8134C16.7872 11.4011 16.7062 11.7732 16.5679 12.0727L17.5714 12.6415C17.802 12.1366 17.9033 11.5802 17.9516 10.9149C18 10.2571 18 9.43636 18 8.39511H16.875ZM16.875 6.64091V8.39511H18V6.64091H16.875ZM16.5679 2.96335C16.7051 3.26282 16.7873 3.63496 16.8311 4.22262C16.875 4.81779 16.875 5.57837 16.875 6.64091H18C18 5.59841 18 4.77895 17.9516 4.12112C17.9033 3.45578 17.802 2.89945 17.5714 2.39449L16.5679 2.96335ZM15.3394 1.59382C15.8684 1.89441 16.2985 2.37382 16.5679 2.96335L17.5714 2.39449C17.1938 1.56901 16.5913 0.897898 15.8501 0.477394L15.3394 1.59382ZM12.0375 1.253C12.9915 1.253 13.6732 1.253 14.2087 1.30312C14.7364 1.35074 15.0705 1.44095 15.3394 1.59382L15.8501 0.477394C15.3968 0.219275 14.8973 0.107758 14.2999 0.0526259C13.7093 -2.28722e-07 12.9724 0 12.0375 0V1.253ZM5.9625 1.253H12.0375V0H5.9625V1.253ZM2.66062 1.59382C2.9295 1.44221 3.26362 1.35074 3.79125 1.30187C4.32562 1.253 5.0085 1.253 5.9625 1.253V0C5.0265 0 4.29075 2.754e-07 3.70012 0.0538794C3.10275 0.107758 2.60325 0.220528 2.14987 0.477394L2.66062 1.59382ZM1.431 2.96335C1.70069 2.37363 2.13115 1.89419 2.66062 1.59382L2.14987 0.477394C1.4089 0.897571 0.807488 1.56947 0.42975 2.39449L1.431 2.96335ZM4.00612 15.219C4.11154 15.1018 4.25435 15.0361 4.40325 15.036V13.783C3.95585 13.7835 3.52691 13.9818 3.21075 14.3343L4.00612 15.219Z" fill="black"/>
<path d="M15.3394 13.4422L16.0213 13.1299L14.6574 13.7542L15.3394 13.4422ZM15.8501 0.477394L16.5323 0.78912L15.1681 0.16538L15.8501 0.477394ZM2.66062 1.59382L1.97874 1.90612L3.34264 1.2818L2.66062 1.59382ZM0.930375 2.67892L0.559883 3.33102L1.06051 3.61545L1.431 2.96335L1.80149 2.31125L1.30087 2.02682L0.930375 2.67892ZM1.4265 17.2062L0.869138 17.7081L1.26739 18.1504L1.82475 17.6485L2.38211 17.1467L1.98386 16.7044L1.4265 17.2062ZM15.5947 13.9998L16.2766 13.6875L16.0213 13.1299L15.3394 13.4422L14.6575 13.7545L14.9129 14.3121L15.5947 13.9998ZM17.0696 12.3571L17.4401 11.705L16.9395 11.4206L16.569 12.0727L16.1985 12.7248L16.6991 13.0092L17.0696 12.3571ZM17.0696 2.67892L16.6991 2.02682L16.1985 2.31125L16.569 2.96335L16.9395 3.61545L17.4401 3.33102L17.0696 2.67892ZM15.5947 1.03623L16.2769 1.34796L16.5323 0.78912L15.8501 0.477394L15.168 0.165668L14.9126 0.724507L15.5947 1.03623ZM2.40525 1.03623L1.72337 1.34854L1.97874 1.90612L2.66062 1.59382L3.34251 1.28151L3.08713 0.723929L2.40525 1.03623ZM3.609 14.7767L3.05093 15.2777L3.44806 15.72L4.00612 15.219L4.56419 14.7179L4.16707 14.2756L3.609 14.7767ZM1.431 2.96335L1.80149 2.31125L0.800243 1.74239L0.42975 2.39449L0.0592572 3.04659L1.06051 3.61545L1.431 2.96335ZM0 6.64091V7.39091H1.125V6.64091V5.89091H0V6.64091ZM0 8.14451V8.89451H1.125V8.14451V7.39451H0V8.14451ZM0 14.4095V15.1595H1.125V14.4095V13.6595H0V14.4095ZM4.40325 13.783H3.65325V15.036H4.40325H5.15325V13.783H4.40325ZM12.0375 15.036H12.7875V13.783H12.0375H11.2875V15.036H12.0375ZM15.8501 14.5586L16.5321 14.2466L16.0214 13.1302L15.3394 13.4422L14.6574 13.7542L15.1681 14.8706L15.8501 14.5586ZM17.5714 12.6415L17.9412 11.9891L16.9377 11.4202L16.5679 12.0727L16.198 12.7251L17.2015 13.294L17.5714 12.6415ZM18 8.39511V7.64511H16.875V8.39511V9.14511H18V8.39511ZM18 6.64091V5.89091H16.875V6.64091V7.39091H18V6.64091ZM17.5714 2.39449L17.2015 1.74203L16.198 2.31089L16.5679 2.96335L16.9377 3.61581L17.9412 3.04694L17.5714 2.39449ZM15.8501 0.477394L15.1681 0.16538L14.6574 1.2818L15.3394 1.59382L16.0214 1.90583L16.5321 0.789408L15.8501 0.477394ZM12.0375 0H11.2875V1.253H12.0375H12.7875V0H12.0375ZM5.9625 0H5.2125V1.253H5.9625H6.7125V0H5.9625ZM2.14987 0.477394L1.46786 0.789408L1.97861 1.90583L2.66062 1.59382L3.34264 1.2818L2.83189 0.16538L2.14987 0.477394ZM1.431 2.96335L2.79461 3.58831L2.79512 3.58719L1.431 2.96335ZM15.3394 13.4422L14.5988 12.1378L14.598 12.1382L15.3394 13.4422ZM15.8501 0.477394L15.108 1.78094L15.1099 1.78204L15.8501 0.477394ZM2.66062 1.59382L1.92386 0.287222L1.92047 0.289144L2.66062 1.59382ZM1.17 4.22262L2.66574 4.33571L2.66605 4.33145L1.17 4.22262ZM0.42975 2.39449L1.79303 3.02016L1.79359 3.01893L0.42975 2.39449ZM0.0472498 4.12112L-1.44862 4.00983L-1.4489 4.01366L0.0472498 4.12112ZM1.125 16.8078V18.3078H2.625V16.8078H1.125ZM1.02937 16.7627L0.133103 15.5599L-1.18474 16.5419L-0.0867612 17.7648L1.02937 16.7627ZM1.06087 16.7464L1.18897 15.2519L0.889811 15.2262L0.603832 15.3177L1.06087 16.7464ZM1.09012 16.7489L1.89338 15.4821L1.58364 15.2857L1.21822 15.2544L1.09012 16.7489ZM1.12388 16.8065L1.12555 18.3065L2.76869 18.3047L2.61751 16.6685L1.12388 16.8065ZM3.21075 14.3331L4.32689 13.331L3.21075 12.0878L2.09461 13.331L3.21075 14.3331ZM1.02825 16.7639L-0.0878873 15.7618L-0.988905 16.7653L-0.086476 17.7676L1.02825 16.7639ZM4.40325 13.783V12.283L4.40178 12.283L4.40325 13.783ZM4.40325 15.036V13.536H4.40289L4.40325 15.036ZM14.2087 13.7342L14.3451 15.228L14.3471 15.2278L14.2087 13.7342ZM14.2999 14.9821L14.1651 13.4882L14.1636 13.4884L14.2999 14.9821ZM15.8501 14.5586L16.5895 15.8637L16.5903 15.8633L15.8501 14.5586ZM16.5679 12.0727L15.2062 11.4435L15.2039 11.4485L16.5679 12.0727ZM17.5714 12.6415L18.9355 13.2654L18.9358 13.2647L17.5714 12.6415ZM16.83 10.8134L15.3343 10.7003L15.334 10.7046L16.83 10.8134ZM17.9516 10.9149L16.4557 10.8049L16.4556 10.8061L17.9516 10.9149ZM16.5679 2.96335L15.2036 3.58679L15.2043 3.58831L16.5679 2.96335ZM16.8311 4.22262L18.3271 4.11234L18.327 4.11094L16.8311 4.22262ZM17.9516 4.12112L16.4556 4.2299L16.4557 4.23113L17.9516 4.12112ZM17.5714 2.39449L18.9358 1.77132L18.9355 1.77059L17.5714 2.39449ZM15.3394 1.59382L14.598 2.8978L14.5984 2.89802L15.3394 1.59382ZM14.2087 1.30312L14.069 2.7966L14.0739 2.79705L14.2087 1.30312ZM14.2999 0.0526259L14.4377 -1.44103L14.433 -1.44145L14.2999 0.0526259ZM3.79125 1.30187L3.65465 -0.191899L3.65292 -0.191738L3.79125 1.30187ZM3.70012 0.0538794L3.83487 1.54782L3.8364 1.54768L3.70012 0.0538794ZM2.14987 0.477394L1.41046 -0.827698L1.40997 -0.827421L2.14987 0.477394ZM3.21075 14.3343L2.09399 13.3329L1.19479 14.3357L2.09532 15.3372L3.21075 14.3343ZM1.125 6.64091H2.625C2.625 5.55418 2.62602 4.8609 2.66573 4.33571L1.17 4.22262L-0.325731 4.10953C-0.376022 4.77469 -0.375 5.60255 -0.375 6.64091H1.125ZM1.17 4.22262L2.66605 4.33145C2.70318 3.82097 2.765 3.65291 2.79461 3.58831L1.431 2.96335L0.0673923 2.33839C-0.177501 2.87273 -0.277682 3.44895 -0.326047 4.11379L1.17 4.22262ZM0.42975 2.39449L-0.93353 1.76881C-1.2721 2.50653 -1.39322 3.26518 -1.44862 4.00983L0.0472498 4.12112L1.54312 4.23241C1.58672 3.64638 1.6681 3.29237 1.79303 3.02016L0.42975 2.39449ZM0.0472498 4.12112L-1.4489 4.01366C-1.50089 4.73747 -1.5 5.6204 -1.5 6.64091H0H1.5C1.5 5.57893 1.50088 4.82043 1.5434 4.22859L0.0472498 4.12112ZM1.125 8.14451H2.625V6.64091H1.125H-0.375V8.14451H1.125ZM0 6.64091H-1.5V8.14451H0H1.5V6.64091H0ZM0 8.14451H-1.5V14.4095H0H1.5V8.14451H0ZM1.125 14.4095H2.625V8.14451H1.125H-0.375V14.4095H1.125ZM0 14.4095H-1.5V16.8078H0H1.5V14.4095H0ZM0 16.8078V18.3078H1.125V16.8078V15.3078H0V16.8078ZM1.125 16.8078H2.625V14.4095H1.125H-0.375V16.8078H1.125ZM0 16.8078H-1.5C-1.5 17.9107 -0.883036 18.8476 0.0315865 19.2693C0.972286 19.703 2.14366 19.5386 2.94089 18.6507L1.82475 17.6485L0.708613 16.6464C0.748335 16.6022 0.83752 16.5359 0.970647 16.5101C1.09549 16.486 1.2068 16.5076 1.28776 16.545C1.45847 16.6237 1.5 16.7649 1.5 16.8078H0ZM1.82475 17.6485L2.94089 16.6464L2.14551 15.7605L1.02937 16.7627L-0.0867612 17.7648L0.708614 18.6507L1.82475 17.6485ZM1.02937 16.7627L1.92565 17.9655C1.8061 18.0545 1.66895 18.1267 1.51792 18.175L1.06087 16.7464L0.603832 15.3177C0.430416 15.3732 0.272005 15.4564 0.133103 15.5599L1.02937 16.7627ZM1.06087 16.7464L0.93278 18.2409L0.96203 18.2434L1.09012 16.7489L1.21822 15.2544L1.18897 15.2519L1.06087 16.7464ZM1.09012 16.7489L0.286873 18.0157C0.0840734 17.8871 -0.0724489 17.7167 -0.181149 17.5311L1.11327 16.7731L2.40769 16.0152C2.28725 15.8095 2.11485 15.6225 1.89338 15.4821L1.09012 16.7489ZM1.11327 16.7731L-0.181149 17.5311C-0.289579 17.3459 -0.351261 17.1448 -0.369763 16.9445L1.12388 16.8065L2.61751 16.6685C2.59681 16.4445 2.52786 16.2204 2.40769 16.0152L1.11327 16.7731ZM1.12388 16.8065L1.1222 15.3065L-0.00167142 15.3078L0 16.8078L0.00167142 18.3078L1.12555 18.3065L1.12388 16.8065ZM1.82475 17.6485L2.94089 18.6507L5.12226 16.2211L4.00612 15.219L2.88999 14.2168L0.708613 16.6464L1.82475 17.6485ZM4.00612 15.219L5.12226 14.2168L4.32689 13.331L3.21075 14.3331L2.09461 15.3352L2.88999 16.2211L4.00612 15.219ZM3.21075 14.3331L2.09461 13.331L-0.0878873 15.7618L1.02825 16.7639L2.14439 17.766L4.32689 15.3352L3.21075 14.3331ZM1.02825 16.7639L-0.086476 17.7676L0.710024 18.6522L1.82475 17.6485L2.93948 16.6448L2.14298 15.7602L1.02825 16.7639ZM12.0375 13.783V12.283H4.40325V13.783V15.283H12.0375V13.783ZM4.40325 15.036V16.536H12.0375V15.036V13.536H4.40325V15.036ZM15.3394 13.4422L14.598 12.1382C14.5922 12.1415 14.4981 12.2009 14.0704 12.2406L14.2087 13.7342L14.3471 15.2278C14.9747 15.1696 15.5488 15.0486 16.0807 14.7462L15.3394 13.4422ZM14.2087 13.7342L14.0724 12.2404C13.6212 12.2815 13.0205 12.283 12.0375 12.283V13.783V15.283C12.9625 15.283 13.7253 15.2845 14.3451 15.228L14.2087 13.7342ZM12.0375 15.036V16.536C12.9473 16.536 13.7619 16.5374 14.4361 16.4759L14.2999 14.9821L14.1636 13.4884C13.6566 13.5346 12.9997 13.536 12.0375 13.536V15.036ZM14.2999 14.9821L14.4346 16.4761C15.139 16.4126 15.8761 16.2679 16.5895 15.8637L15.8501 14.5586L15.1107 13.2535C14.9174 13.363 14.6555 13.444 14.1651 13.4882L14.2999 14.9821ZM16.5679 12.0727L15.2039 11.4485C15.0558 11.7721 14.8341 12.0042 14.5988 12.1378L15.3394 13.4422L16.0799 14.7466C16.9025 14.2797 17.5407 13.5514 17.9318 12.6969L16.5679 12.0727ZM15.8501 14.5586L16.5903 15.8633C17.6242 15.2767 18.4358 14.3579 18.9355 13.2654L17.5714 12.6415L16.2073 12.0176C15.9519 12.5761 15.5583 12.9996 15.1099 13.254L15.8501 14.5586ZM16.875 8.39511H15.375C15.375 9.48184 15.374 10.1751 15.3343 10.7003L16.83 10.8134L18.3257 10.9265C18.376 10.2613 18.375 9.43348 18.375 8.39511H16.875ZM16.83 10.8134L15.334 10.7046C15.2968 11.2157 15.2349 11.3813 15.2062 11.4435L16.5679 12.0727L17.9295 12.7019C18.1776 12.1651 18.2777 11.5865 18.326 10.9222L16.83 10.8134ZM17.5714 12.6415L18.9358 13.2647C19.2723 12.528 19.3934 11.7703 19.4477 11.0237L17.9516 10.9149L16.4556 10.8061C16.4131 11.3902 16.3317 11.7451 16.2069 12.0184L17.5714 12.6415ZM17.9516 10.9149L19.4476 11.0249C19.5009 10.2995 19.5 9.41514 19.5 8.39511H18H16.5C16.5 9.45758 16.4991 10.2146 16.4557 10.8049L17.9516 10.9149ZM16.875 6.64091H15.375V8.39511H16.875H18.375V6.64091H16.875ZM18 8.39511H19.5V6.64091H18H16.5V8.39511H18ZM16.5679 2.96335L15.2043 3.58831C15.235 3.65528 15.2973 3.82541 15.3353 4.3343L16.8311 4.22262L18.327 4.11094C18.2772 3.44451 18.1753 2.87035 17.9315 2.33839L16.5679 2.96335ZM16.8311 4.22262L15.3352 4.33289C15.374 4.85982 15.375 5.55478 15.375 6.64091H16.875H18.375C18.375 5.60195 18.376 4.77577 18.3271 4.11234L16.8311 4.22262ZM18 6.64091H19.5C19.5 5.61962 19.5009 4.73647 19.4476 4.01111L17.9516 4.12112L16.4557 4.23113C16.4991 4.82142 16.5 5.57721 16.5 6.64091H18ZM17.9516 4.12112L19.4477 4.01235C19.3934 3.26572 19.2723 2.50801 18.9358 1.77133L17.5714 2.39449L16.2069 3.01765C16.3317 3.29089 16.4131 3.64584 16.4556 4.2299L17.9516 4.12112ZM15.3394 1.59382L14.5984 2.89802C14.8349 3.03241 15.0562 3.26423 15.2036 3.58679L16.5679 2.96335L17.9322 2.33991C17.5408 1.48341 16.9019 0.756408 16.0804 0.28962L15.3394 1.59382ZM17.5714 2.39449L18.9355 1.77059C18.4358 0.678085 17.6242 -0.240643 16.5903 -0.827247L15.8501 0.477394L15.1099 1.78204C15.5583 2.03644 15.9519 2.45993 16.2073 3.01838L17.5714 2.39449ZM12.0375 1.253V2.753C13.0212 2.753 13.6199 2.75456 14.069 2.7966L14.2087 1.30312L14.3485 -0.190351C13.7266 -0.248557 12.9618 -0.246998 12.0375 -0.246998V1.253ZM14.2087 1.30312L14.0739 2.79705C14.4994 2.83545 14.5928 2.89484 14.598 2.8978L15.3394 1.59382L16.0807 0.289835C15.5482 -0.0129398 14.9733 -0.133974 14.3436 -0.190807L14.2087 1.30312ZM15.8501 0.477394L16.5923 -0.82615C15.8762 -1.23381 15.1369 -1.3765 14.4377 -1.44103L14.2999 0.0526259L14.162 1.54628C14.6576 1.59201 14.9173 1.67237 15.108 1.78094L15.8501 0.477394ZM14.2999 0.0526259L14.433 -1.44145C13.7607 -1.50136 12.9467 -1.5 12.0375 -1.5V0V1.5C12.998 1.5 13.6578 1.50136 14.1667 1.54671L14.2999 0.0526259ZM5.9625 1.253V2.753H12.0375V1.253V-0.246998H5.9625V1.253ZM12.0375 0V-1.5H5.9625V0V1.5H12.0375V0ZM2.66062 1.59382L3.39739 2.90041C3.40787 2.8945 3.50649 2.83466 3.92958 2.79548L3.79125 1.30187L3.65292 -0.191738C3.02076 -0.13319 2.45113 -0.0100911 1.92386 0.287226L2.66062 1.59382ZM3.79125 1.30187L3.92785 2.79564C4.37776 2.75449 4.97931 2.753 5.9625 2.753V1.253V-0.246998C5.03769 -0.246998 4.27349 -0.248489 3.65465 -0.191898L3.79125 1.30187ZM5.9625 0V-1.5C5.05274 -1.5 4.23806 -1.50142 3.56386 -1.43992L3.70012 0.0538794L3.8364 1.54768C4.34344 1.50142 5.00026 1.5 5.9625 1.5V0ZM3.70012 0.0538794L3.56538 -1.44006C2.861 -1.37653 2.12393 -1.23192 1.41046 -0.827698L2.14987 0.477394L2.88929 1.78249C3.08257 1.67298 3.3445 1.59204 3.83487 1.54782L3.70012 0.0538794ZM1.431 2.96335L2.79512 3.58719C2.94267 3.26454 3.16411 3.03276 3.40078 2.89849L2.66062 1.59382L1.92047 0.289144C1.09819 0.755631 0.458707 1.48272 0.0668792 2.33951L1.431 2.96335ZM2.14987 0.477394L1.40997 -0.827421C0.37458 -0.240295 -0.435017 0.680016 -0.934093 1.77004L0.42975 2.39449L1.79359 3.01893C2.04999 2.45893 2.44321 2.03544 2.88978 1.78221L2.14987 0.477394ZM4.00612 15.219L5.121 16.2225C4.96076 16.4005 4.70698 16.536 4.4036 16.536L4.40325 15.036L4.40289 13.536C3.80173 13.5362 3.26233 13.8032 2.89125 14.2154L4.00612 15.219ZM4.40325 13.783L4.40178 12.283C3.50137 12.2839 2.67555 12.6844 2.09399 13.3329L3.21075 14.3343L4.32751 15.3358C4.3536 15.3067 4.3755 15.2936 4.38726 15.2882C4.39858 15.2829 4.40389 15.283 4.40472 15.283L4.40325 13.783ZM3.21075 14.3343L2.09532 15.3372L2.89069 16.2219L4.00612 15.219L5.12156 14.2161L4.32618 13.3314L3.21075 14.3343Z" fill="white" mask="url(#path-1-inside-1_2436_322)"/>
<path d="M5.0625 5.63867H12.9375M5.0625 9.39768H10.6875" stroke="white" stroke-width="1.5" stroke-linecap="round" stroke-linejoin="round"/>
</svg>
