<svg width="22" height="22" viewBox="0 0 22 22" fill="none" xmlns="http://www.w3.org/2000/svg">
<path d="M0.75 10.75C0.75 6.03556 0.75 3.67889 2.21444 2.21444C3.67889 0.75 6.03667 0.75 10.75 0.75C15.4633 0.75 17.8211 0.75 19.2856 2.21444C20.75 3.67889 20.75 6.03667 20.75 10.75C20.75 15.4633 20.75 17.8211 19.2856 19.2856C17.8211 20.75 15.4633 20.75 10.75 20.75C6.03667 20.75 3.67889 20.75 2.21444 19.2856C0.75 17.8211 0.75 15.4633 0.75 10.75Z" stroke="white" stroke-width="1.5" stroke-linejoin="round"/>
<path d="M10.7499 15.75C10.7499 15.75 5.19434 12.22 5.19434 8.80556C5.19434 7.11778 6.36434 5.75 7.97211 5.75C8.80545 5.75 9.63878 6.04444 10.7499 7.22111C11.861 6.04333 12.6943 5.75 13.5277 5.75C15.1354 5.75 16.3054 7.11778 16.3054 8.80556C16.3054 12.22 10.7499 15.75 10.7499 15.75Z" stroke="white" stroke-width="1.5" stroke-linejoin="round"/>
</svg>
