<svg width="17" height="17" viewBox="0 0 17 17" fill="none" xmlns="http://www.w3.org/2000/svg">
<path d="M1.78075 12.8488H3.14192C3.23486 12.8488 3.32199 12.8904 3.38008 12.9635C3.51562 13.1315 3.66083 13.2936 3.8138 13.4478C4.43939 14.0871 5.18044 14.5967 5.99594 14.9481C6.8408 15.3125 7.74887 15.4993 8.66601 15.4977C9.59346 15.4977 10.4919 15.3119 11.3361 14.9481C12.1516 14.5967 12.8926 14.0871 13.5182 13.4478C14.1449 12.8106 14.6447 12.0554 14.9898 11.224C15.348 10.3621 15.528 9.44687 15.528 8.50002C15.528 7.55316 15.346 6.63793 14.9898 5.77607C14.6451 4.94386 14.1494 4.19467 13.5182 3.55223C12.887 2.90979 12.1532 2.40375 11.3361 2.05189C10.4919 1.68817 9.59346 1.50235 8.66601 1.50235C7.73855 1.50235 6.84013 1.68619 5.99594 2.05189C5.17884 2.40375 4.44501 2.90979 3.8138 3.55223C3.66083 3.7084 3.51755 3.87049 3.38008 4.03653C3.32199 4.10967 3.23292 4.15119 3.14192 4.15119H1.78075C1.65876 4.15119 1.58325 4.01281 1.65102 3.90805C3.13611 1.55177 5.73454 -0.00787704 8.6873 2.99252e-05C13.3265 0.0118904 17.046 3.85665 16.9996 8.58699C16.9531 13.2422 13.2394 17 8.66601 17C5.72099 17 3.13418 15.4423 1.65102 13.092C1.58519 12.9872 1.65876 12.8488 1.78075 12.8488ZM0.059433 8.37548L2.80695 6.16153C2.90957 6.07851 3.05866 6.15362 3.05866 6.28607V7.78839H9.13845C9.22364 7.78839 9.29335 7.85955 9.29335 7.94653V9.0535C9.29335 9.14048 9.22364 9.21164 9.13845 9.21164H3.05866V10.714C3.05866 10.8464 2.90764 10.9215 2.80695 10.8385L0.059433 8.62455C0.0409184 8.60976 0.0259457 8.59086 0.0156479 8.56928C0.00535202 8.5477 0 8.52402 0 8.50002C0 8.47601 0.00535202 8.45233 0.0156479 8.43075C0.0259457 8.40917 0.0409184 8.39027 0.059433 8.37548Z" fill="white"/>
</svg>
