<svg width="18" height="20" viewBox="0 0 18 20" fill="none" xmlns="http://www.w3.org/2000/svg">
<path d="M11.5234 18.3574C11.2869 18.6342 11.0004 18.8724 10.6738 19.0586C10.1694 19.3461 9.59106 19.4985 9 19.499C8.40907 19.4984 7.83047 19.3461 7.32617 19.0586C6.99981 18.8725 6.71391 18.634 6.47754 18.3574H11.5234ZM9 0.5C10.0135 0.5 10.9506 1.20419 11.2998 2.31836L11.332 2.42285L11.4053 2.50293C11.4559 2.5593 11.5156 2.60588 11.5811 2.64062L11.6064 2.6543L11.6328 2.66504C12.5658 3.03094 13.2799 3.50073 13.8262 4.08887L14.0508 4.34766C14.8234 5.30875 15.2393 6.61815 15.2393 8.27637C15.2393 9.98058 15.3954 11.0715 15.7119 11.9033C16.032 12.7444 16.5031 13.2813 17.0146 13.8711L17.0156 13.8721L17.2441 14.1367C17.3815 14.295 17.4668 14.4846 17.4922 14.6826C17.5176 14.8807 17.4825 15.0824 17.3906 15.2646V15.2656C17.1933 15.6586 16.7648 15.9267 16.2363 15.9268H1.76953C1.23621 15.9268 0.805243 15.6569 0.609375 15.2637L0.608398 15.2627L0.550781 15.1221C0.503857 14.9793 0.488583 14.829 0.507812 14.6807C0.533462 14.483 0.618628 14.2937 0.755859 14.1357H0.756836L0.759766 14.1318C0.835593 14.043 0.909712 13.9571 0.985352 13.8701C1.49753 13.2808 1.96905 12.7445 2.28906 11.9033C2.60545 11.0714 2.76172 9.97946 2.76172 8.27441C2.76174 6.81709 3.06748 5.65744 3.65332 4.75C4.2372 3.84566 5.1265 3.14936 6.36816 2.66211L6.39453 2.65234L6.41992 2.63867C6.48254 2.60545 6.54051 2.56174 6.58984 2.50879L6.66699 2.42578L6.70117 2.31738C7.0503 1.20442 7.98648 0.500053 9 0.5Z" stroke="white"/>
</svg>
