<svg width="20" height="18" viewBox="0 0 20 18" fill="none" xmlns="http://www.w3.org/2000/svg">
<path d="M1.95 18V5.1L0 0.85L1.8 0L4.15 5.05H15.75L18.1 0L19.9 0.85L17.95 5.1V18H1.95ZM7.95 11H11.95C12.2333 11 12.471 10.904 12.663 10.712C12.855 10.52 12.9507 10.2827 12.95 10C12.9493 9.71733 12.8533 9.48 12.662 9.288C12.4707 9.096 12.2333 9 11.95 9H7.95C7.66667 9 7.42933 9.096 7.238 9.288C7.04667 9.48 6.95067 9.71733 6.95 10C6.94933 10.2827 7.04533 10.5203 7.238 10.713C7.43067 10.9057 7.668 11.0013 7.95 11ZM3.95 16H15.95V7.05H3.95V16Z" fill="white"/>
</svg>
