<svg width="19" height="21" viewBox="0 0 19 21" fill="none" xmlns="http://www.w3.org/2000/svg">
<path d="M6.12179 4.22266C5.89783 4.22266 5.68304 4.27826 5.52468 4.37724C5.36631 4.47622 5.27734 4.61046 5.27734 4.75043C5.27734 4.89041 5.36631 5.02465 5.52468 5.12363C5.68304 5.22261 5.89783 5.27821 6.12179 5.27821H12.8773C13.1013 5.27821 13.3161 5.22261 13.4745 5.12363C13.6328 5.02465 13.7218 4.89041 13.7218 4.75043C13.7218 4.61046 13.6328 4.47622 13.4745 4.37724C13.3161 4.27826 13.1013 4.22266 12.8773 4.22266H6.12179Z" fill="white"/>
<path fill-rule="evenodd" clip-rule="evenodd" d="M9.44446 0C7.42462 0 5.83349 -1.38998e-08 4.59021 0.161375C3.31379 0.327413 2.29559 0.676281 1.49564 1.45051C0.696667 2.2238 0.338103 3.20604 0.166615 4.43734C0 5.63972 0 7.17791 0 9.13306V13.8885C0 15.2951 -4.35572e-08 16.408 0.0935384 17.2466C0.186103 18.0749 0.383897 18.8221 0.950974 19.322C1.40503 19.7232 1.9799 19.975 2.59374 20.0431C3.36056 20.1271 4.07672 19.7763 4.78313 19.2969C5.49733 18.8137 6.36354 18.0796 7.45677 17.1542L7.49185 17.1244C7.99851 16.6953 8.34149 16.4061 8.62795 16.2046C8.90467 16.0115 9.07323 15.9416 9.21549 15.9136C9.40333 15.8779 9.59667 15.8779 9.78451 15.9136C9.92677 15.9416 10.0963 16.0115 10.3721 16.2046C10.6585 16.4052 11.0015 16.6953 11.5082 17.1244L11.5442 17.1542C12.6365 18.0796 13.5027 18.8137 14.2169 19.2978C14.9233 19.7763 15.6394 20.1271 16.4063 20.0431C17.0197 19.9749 17.5947 19.7225 18.049 19.322C18.6151 18.8221 18.8139 18.0749 18.9065 17.2466C19 16.408 19 15.2951 19 13.8885V9.13306C19 7.17791 19 5.63878 18.8334 4.43734C18.6619 3.20604 18.3033 2.2238 17.5044 1.45051C16.7044 0.676281 15.6862 0.327413 14.4098 0.161375C13.1665 -1.38998e-08 11.5754 0 9.55554 0H9.44446ZM2.53333 2.43461C3.01759 1.96635 3.67528 1.69303 4.78605 1.54845C5.91923 1.40107 7.41097 1.3992 9.49903 1.3992C11.5871 1.3992 13.0788 1.40107 14.212 1.54845C15.3228 1.69303 15.9805 1.96635 16.4647 2.43461C16.9499 2.90381 17.2335 3.54278 17.3835 4.62203C17.5355 5.72087 17.5375 7.16578 17.5375 9.18623V13.8437C17.5375 15.3045 17.5365 16.3436 17.4527 17.0973C17.365 17.8715 17.2062 18.1616 17.0581 18.2932C16.8301 18.4937 16.5436 18.6196 16.2396 18.6523C16.0448 18.6737 15.7193 18.6019 15.0607 18.156C14.4195 17.7204 13.6118 17.0385 12.4757 16.0759L12.4504 16.0544C11.9749 15.6524 11.5812 15.3194 11.2334 15.075C10.8699 14.8213 10.5036 14.6254 10.0719 14.5424C9.69374 14.47 9.30431 14.47 8.9261 14.5424C8.49446 14.6263 8.12713 14.8213 7.76467 15.0759C7.41682 15.3185 7.02318 15.6524 6.54769 16.0544L6.52236 16.0759C5.38626 17.0385 4.57851 17.7204 3.93738 18.156C3.27872 18.6019 2.95328 18.6737 2.75841 18.6523C2.45291 18.618 2.1665 18.4923 1.93995 18.2932C1.79185 18.1616 1.63205 17.8715 1.54631 17.0973C1.46154 16.3427 1.46056 15.3045 1.46056 13.8437V9.1853C1.46056 7.16578 1.46251 5.72087 1.61451 4.62203C1.76456 3.54278 2.0481 2.90381 2.53333 2.43461Z" fill="white"/>
</svg>
