<svg width="19" height="13" viewBox="0 0 19 13" fill="none" xmlns="http://www.w3.org/2000/svg">
<path d="M9.21617 8.38612C9.9621 7.75912 10.4972 6.91788 10.7488 5.97647C11.0004 5.03506 10.9564 4.03905 10.6227 3.12351C10.289 2.20797 9.68184 1.4172 8.8835 0.85845C8.08516 0.299698 7.13429 0 6.15984 0C5.18539 0 4.23452 0.299698 3.43617 0.85845C2.63783 1.4172 2.03066 2.20797 1.69699 3.12351C1.36332 4.03905 1.3193 5.03506 1.57091 5.97647C1.82251 6.91788 2.35757 7.75912 3.10351 8.38612C1.93871 8.9128 0.929282 9.73077 0.172611 10.7611C0.032854 10.9516 -0.0255254 11.1897 0.0103153 11.4232C0.046156 11.6567 0.173281 11.8664 0.363724 12.0061C0.554167 12.1459 0.792328 12.2043 1.02581 12.1684C1.2593 12.1326 1.46899 12.0055 1.60874 11.815C2.13254 11.0997 2.81759 10.5178 3.60833 10.1168C4.39906 9.71571 5.27321 9.50669 6.15984 9.50669C7.04647 9.50669 7.92061 9.71571 8.71135 10.1168C9.50208 10.5178 10.1871 11.0997 10.7109 11.815C10.8507 12.0056 11.0604 12.1328 11.294 12.1687C11.5275 12.2046 11.7658 12.1463 11.9563 12.0065C12.1469 11.8668 12.2741 11.657 12.31 11.4235C12.3459 11.1899 12.2876 10.9517 12.1478 10.7611C11.3907 9.73091 10.3811 8.91298 9.21617 8.38612ZM3.19109 4.75385C3.19109 4.16669 3.3652 3.59271 3.69141 3.1045C4.01762 2.6163 4.48128 2.23578 5.02375 2.01109C5.56621 1.78639 6.16313 1.7276 6.73901 1.84215C7.31489 1.9567 7.84387 2.23944 8.25906 2.65463C8.67425 3.06982 8.95699 3.5988 9.07154 4.17468C9.18609 4.75056 9.1273 5.34748 8.90261 5.88994C8.67791 6.43241 8.29739 6.89607 7.80919 7.22228C7.32098 7.54849 6.747 7.7226 6.15984 7.7226C5.37248 7.7226 4.61736 7.40982 4.06061 6.85308C3.50387 6.29633 3.19109 5.54121 3.19109 4.75385ZM18.4876 12.0028C18.3933 12.0721 18.2863 12.1221 18.1726 12.15C18.059 12.1779 17.941 12.1832 17.8254 12.1655C17.7097 12.1478 17.5987 12.1074 17.4986 12.0468C17.3985 11.9861 17.3114 11.9064 17.2422 11.8121C16.7171 11.0981 16.0318 10.5172 15.2413 10.1163C14.4509 9.71545 13.5774 9.50566 12.6911 9.50385C12.4549 9.50385 12.2283 9.41002 12.0613 9.24299C11.8943 9.07597 11.8005 8.84944 11.8005 8.61323C11.8005 8.37702 11.8943 8.15049 12.0613 7.98346C12.2283 7.81644 12.4549 7.7226 12.6911 7.7226C13.113 7.72185 13.53 7.63116 13.9142 7.45656C14.2983 7.28197 14.6408 7.02749 14.9189 6.7101C15.1969 6.3927 15.4041 6.01968 15.5266 5.61589C15.6492 5.21211 15.6842 4.78685 15.6294 4.36846C15.5746 3.95007 15.4313 3.54816 15.209 3.18953C14.9866 2.8309 14.6904 2.52379 14.34 2.28867C13.9896 2.05355 13.5931 1.89583 13.177 1.82602C12.7608 1.75621 12.3346 1.77591 11.9266 1.88381C11.8127 1.91678 11.6933 1.92665 11.5755 1.91285C11.4577 1.89906 11.3439 1.86187 11.2406 1.80348C11.1374 1.74508 11.0469 1.66666 10.9743 1.5728C10.9018 1.47895 10.8488 1.37155 10.8183 1.25692C10.7879 1.14229 10.7806 1.02273 10.797 0.905264C10.8134 0.787795 10.8531 0.67478 10.9137 0.572853C10.9744 0.470926 11.0548 0.38214 11.1502 0.311705C11.2456 0.241269 11.3542 0.190604 11.4694 0.162681C12.5126 -0.11371 13.6187 -0.0266821 14.6058 0.409437C15.5928 0.845556 16.4019 1.60477 16.9 2.56209C17.398 3.51941 17.5552 4.61777 17.3457 5.67635C17.1362 6.73494 16.5725 7.69064 15.7474 8.38612C16.9122 8.9128 17.9216 9.73077 18.6783 10.7611C18.8171 10.9513 18.8749 11.1886 18.8392 11.4213C18.8034 11.654 18.677 11.8631 18.4876 12.0028Z" fill="white"/>
</svg>
